<svg width="21" height="21" viewBox="0 0 21 21" fill="none" xmlns="http://www.w3.org/2000/svg">
<path d="M11.0008 4.99023C8.14369 4.99023 5.86691 7.31166 5.86691 10.1242C5.86691 12.9813 8.14369 15.2581 11.0008 15.2581C13.8133 15.2581 16.1348 12.9813 16.1348 10.1242C16.1348 7.31166 13.8133 4.99023 11.0008 4.99023ZM11.0008 13.4724C9.17048 13.4724 7.65262 11.9992 7.65262 10.1242C7.65262 8.29381 9.12584 6.82059 11.0008 6.82059C12.8312 6.82059 14.3044 8.29381 14.3044 10.1242C14.3044 11.9992 12.8312 13.4724 11.0008 13.4724ZM17.5187 4.81166C17.5187 4.14202 16.983 3.60631 16.3133 3.60631C15.6437 3.60631 15.108 4.14202 15.108 4.81166C15.108 5.48131 15.6437 6.01702 16.3133 6.01702C16.983 6.01702 17.5187 5.48131 17.5187 4.81166ZM20.9116 6.01702C20.8223 4.40988 20.4651 2.98131 19.3044 1.82059C18.1437 0.659877 16.7151 0.302734 15.108 0.213449C13.4562 0.124163 8.50084 0.124163 6.84905 0.213449C5.24191 0.302734 3.85798 0.659877 2.65262 1.82059C1.49191 2.98131 1.13477 4.40988 1.04548 6.01702C0.956194 7.66881 0.956194 12.6242 1.04548 14.2759C1.13477 15.8831 1.49191 17.267 2.65262 18.4724C3.85798 19.6331 5.24191 19.9902 6.84905 20.0795C8.50084 20.1688 13.4562 20.1688 15.108 20.0795C16.7151 19.9902 18.1437 19.6331 19.3044 18.4724C20.4651 17.267 20.8223 15.8831 20.9116 14.2759C21.0008 12.6242 21.0008 7.66881 20.9116 6.01702ZM18.7687 16.017C18.4562 16.9099 17.7419 17.5795 16.8937 17.9367C15.5544 18.4724 12.4294 18.3384 11.0008 18.3384C9.52762 18.3384 6.40262 18.4724 5.10798 17.9367C4.21512 17.5795 3.54548 16.9099 3.18834 16.017C2.65262 14.7224 2.78655 11.5974 2.78655 10.1242C2.78655 8.69559 2.65262 5.57059 3.18834 4.23131C3.54548 3.38309 4.21512 2.71345 5.10798 2.35631C6.40262 1.82059 9.52762 1.95452 11.0008 1.95452C12.4294 1.95452 15.5544 1.82059 16.8937 2.35631C17.7419 2.66881 18.4116 3.38309 18.7687 4.23131C19.3044 5.57059 19.1705 8.69559 19.1705 10.1242C19.1705 11.5974 19.3044 14.7224 18.7687 16.017Z" fill="black"/>
</svg>
