<svg width="20" height="21" viewBox="0 0 20 21" fill="none" xmlns="http://www.w3.org/2000/svg">
<path d="M18.5714 0.125H1.38393C0.625 0.125 0 0.794643 0 1.59821V18.6964C0 19.5 0.625 20.125 1.38393 20.125H18.5714C19.3304 20.125 20 19.5 20 18.6964V1.59821C20 0.794643 19.3304 0.125 18.5714 0.125ZM6.02679 17.2679H3.08036V7.75893H6.02679V17.2679ZM4.55357 6.41964C3.57143 6.41964 2.8125 5.66071 2.8125 4.72321C2.8125 3.78571 3.57143 2.98214 4.55357 2.98214C5.49107 2.98214 6.25 3.78571 6.25 4.72321C6.25 5.66071 5.49107 6.41964 4.55357 6.41964ZM17.1429 17.2679H14.1518V12.625C14.1518 11.5536 14.1518 10.125 12.6339 10.125C11.0714 10.125 10.8482 11.3304 10.8482 12.5804V17.2679H7.90179V7.75893H10.7143V9.05357H10.7589C11.1607 8.29464 12.1429 7.49107 13.5714 7.49107C16.5625 7.49107 17.1429 9.5 17.1429 12.0446V17.2679Z" fill="black"/>
</svg>
