<svg width="312" height="118" viewBox="0 0 312 118" fill="none" xmlns="http://www.w3.org/2000/svg">
<path d="M7.19007 63.372C6.19807 63.372 5.4954 63.2687 5.08207 63.062C4.71007 62.8967 4.52407 62.5453 4.52407 62.008V60.83C4.48274 60.4993 4.46207 60.1273 4.46207 59.714V59.59L4.52407 50.538L4.46207 24.932C4.46207 22.2867 4.42074 19.9927 4.33807 18.05C4.33807 17.554 4.4414 17.1407 4.64807 16.81C4.85474 16.4793 5.1234 16.314 5.45407 16.314H9.29807C9.87674 16.314 10.3107 16.3553 10.6001 16.438C11.0134 16.562 11.2201 16.9133 11.2201 17.492C11.2201 17.8227 11.0961 18.0913 10.8481 18.298C10.6001 18.5047 10.3314 18.6287 10.0421 18.67H8.98807L7.99607 18.608L7.00407 18.546C6.71474 18.546 6.50807 18.608 6.38407 18.732C6.3014 18.8147 6.26007 19.0007 6.26007 19.29C6.26007 21.2327 6.28074 22.9893 6.32207 24.56V29.83V37.58C6.32207 37.6627 6.3634 37.704 6.44607 37.704H6.50807H6.57007C7.6034 37.6213 8.7194 37.58 9.91807 37.58C10.5794 37.58 10.9101 37.8693 10.9101 38.448C10.9101 38.8613 10.8274 39.1507 10.6621 39.316C10.5381 39.44 10.3107 39.502 9.98007 39.502H6.44607C6.28074 39.502 6.19807 39.6053 6.19807 39.812L6.32207 48.988C6.40474 51.84 6.44607 55.126 6.44607 58.846V61.14H9.11207H11.7161H12.2741C13.0181 61.14 13.3901 61.4087 13.3901 61.946C13.3901 62.6073 13.2041 63 12.8321 63.124C12.3361 63.2893 11.3234 63.372 9.79407 63.372H7.19007ZM44.5155 66.224C43.6889 66.224 43.2755 64.9013 43.2755 62.256V58.164C43.2755 52.212 43.1515 47.562 42.9035 44.214L42.7175 41.92C42.5522 40.8867 42.4695 39.9773 42.4695 39.192C42.4695 37.7867 42.5109 36.5053 42.5935 35.348L42.7175 31.504C42.7175 30.2227 42.6349 29.2513 42.4695 28.59C41.6429 29.1687 39.1422 37.8693 34.9675 54.692L34.9055 55.622C34.7815 56.6553 34.6162 57.482 34.4095 58.102C34.2855 58.5567 34.0995 58.908 33.8515 59.156C33.6449 59.404 33.3969 59.528 33.1075 59.528C32.4462 59.528 31.9709 59.3627 31.6815 59.032C31.3922 58.7013 31.2475 58.1847 31.2475 57.482C31.2475 56.366 30.7102 53.4727 29.6355 48.802C28.6022 44.1313 27.4655 39.6467 26.2255 35.348C25.0269 31.0493 24.2002 28.6727 23.7455 28.218C23.7042 29.6647 23.5389 33.0747 23.2495 38.448C22.6709 47.9547 22.3815 55.436 22.3815 60.892L22.4435 63.372C22.2782 63.9093 21.8442 64.178 21.1415 64.178C21.0175 64.178 20.8109 64.054 20.5215 63.806C20.2322 63.5993 20.0875 63.434 20.0875 63.31C20.0875 59.59 20.4182 53.0593 21.0795 43.718C21.6995 35.038 22.0095 28.528 22.0095 24.188C22.0095 23.9813 21.9682 23.7747 21.8855 23.568C21.7615 23.32 21.6995 23.134 21.6995 23.01C21.6995 22.39 22.2369 22.08 23.3115 22.08C24.0142 22.08 24.4275 22.39 24.5515 23.01C24.7169 23.8367 24.7995 24.4567 24.7995 24.87L24.8615 25.614C25.0682 26.6887 25.6675 28.342 26.6595 30.574C27.4449 32.3513 28.0442 33.9013 28.4575 35.224C28.7055 36.216 28.9329 37.022 29.1395 37.642C29.8009 40.0393 30.2349 41.8167 30.4415 42.974L31.2475 44.586C31.3715 45.206 31.6195 46.2187 31.9915 47.624C32.3635 49.1947 32.6322 50.476 32.7975 51.468C32.9629 52.46 33.0455 53.4107 33.0455 54.32C33.5002 53.6173 34.7815 49.4013 36.8895 41.672C39.0389 33.9013 40.2995 28.9413 40.6715 26.792C40.7129 26.7093 40.7335 26.606 40.7335 26.482C40.7749 26.3167 40.8162 26.11 40.8575 25.862C40.9402 25.3247 41.1262 24.5187 41.4155 23.444C41.7462 22.6173 42.2422 22.204 42.9035 22.204C43.1929 22.204 43.5235 22.328 43.8955 22.576C44.2675 22.824 44.4535 23.072 44.4535 23.32C44.4535 40.556 44.7222 49.67 45.2595 50.662V53.886C45.2182 54.8367 45.1975 55.932 45.1975 57.172C45.1975 59.8173 45.3422 61.8013 45.6315 63.124C45.6729 63.1653 45.6935 63.2273 45.6935 63.31C45.7349 63.3927 45.7762 63.496 45.8175 63.62C45.8589 63.7853 45.8795 63.9713 45.8795 64.178C45.8795 64.6327 45.7349 65.0873 45.4455 65.542C45.1975 65.9967 44.8875 66.224 44.5155 66.224ZM42.4695 28.218H42.4075L42.2835 28.28L42.4695 28.342V28.218ZM56.0713 63.744C55.6166 61.14 55.3893 58.164 55.3893 54.816C55.3893 53.4933 55.4513 51.5713 55.5753 49.05L55.6993 43.284C55.4099 42.7053 55.2653 42.23 55.2653 41.858C55.6786 41.1967 55.8853 39.2953 55.8853 36.154C55.8853 28.6313 55.7819 24.622 55.5753 24.126C55.9473 23.0927 56.2366 22.576 56.4433 22.576H59.1713C59.6259 22.576 60.2666 22.8033 61.0933 23.258C61.9613 23.6713 62.6846 24.126 63.2633 24.622C64.2966 25.5727 64.8133 28.0113 64.8133 31.938C64.8133 34.046 64.7513 35.658 64.6273 36.774C64.5446 37.5593 64.3999 38.1793 64.1933 38.634C64.0279 39.0887 63.7593 39.6053 63.3873 40.184C62.7673 41.1347 61.7133 41.9613 60.2253 42.664C59.6053 42.9947 58.7373 43.3253 57.6213 43.656V51.034C57.6213 52.0673 57.7246 54.0927 57.9313 57.11L58.0553 59.094L58.1793 63.124C58.1793 63.868 57.7866 64.24 57.0013 64.24L56.0713 63.744ZM58.0553 41.548C59.2539 41.548 60.2666 40.99 61.0933 39.874C61.3826 39.4607 61.6513 38.9027 61.8993 38.2C62.1473 37.4973 62.3126 36.8153 62.3953 36.154C62.6433 34.9553 62.7673 33.5707 62.7673 32V30.326C62.7673 29.7473 62.7466 29.1893 62.7053 28.652C62.6639 28.1147 62.5813 27.598 62.4573 27.102C62.2919 26.5647 62.0646 26.1307 61.7753 25.8C61.5273 25.428 61.1759 25.118 60.7213 24.87C60.2253 24.622 59.6259 24.498 58.9233 24.498C58.4273 24.498 58.0759 24.622 57.8693 24.87C57.6626 25.118 57.5593 25.552 57.5593 26.172C57.5593 27.164 57.6213 28.652 57.7453 30.636L57.8693 35.1C57.8693 36.1747 57.8279 37.146 57.7453 38.014L57.6213 40.928L58.0553 41.548ZM80.9764 63.744C80.4804 63.2067 79.943 61.7807 79.3644 59.466C78.7857 57.1513 78.2484 54.5473 77.7524 51.654C77.4217 49.298 76.9464 46.9627 76.3264 44.648C75.8304 42.5813 75.355 41.548 74.9004 41.548H74.7144C73.805 41.548 73.3504 41.8373 73.3504 42.416C73.3504 45.392 73.5157 49.918 73.8464 55.994C74.0117 59.714 74.1977 61.884 74.4044 62.504L73.9084 63.558H73.0404L72.5444 63.062C71.883 43.966 71.5524 30.946 71.5524 24.002C71.5524 23.5473 71.573 23.1753 71.6144 22.886C71.697 22.5967 71.8417 22.328 72.0484 22.08C72.2137 21.7907 72.503 21.646 72.9164 21.646C75.0244 21.646 76.719 22.1627 78.0004 23.196C79.2817 24.2293 79.9224 25.7173 79.9224 27.66V32.186C79.9224 32.9713 79.6537 34.0253 79.1164 35.348C78.6204 36.6707 78.0624 37.89 77.4424 39.006L76.6364 40.556C77.091 42.664 77.9797 46.4667 79.3024 51.964C80.6664 57.42 81.4104 60.3133 81.5344 60.644C81.5757 60.6853 81.617 60.7887 81.6584 60.954C81.741 61.1193 81.8857 61.3673 82.0924 61.698C82.3817 62.2767 82.5264 62.7727 82.5264 63.186C82.5264 63.7647 82.299 64.054 81.8444 64.054L80.9764 63.744ZM73.6604 39.998C74.4457 39.998 75.1484 39.6053 75.7684 38.82C76.3884 38.0347 76.8844 37.022 77.2564 35.782C77.9177 33.2607 78.2484 31.256 78.2484 29.768C78.2484 28.8173 78.1864 28.032 78.0624 27.412C77.9797 26.792 77.8144 26.1307 77.5664 25.428C77.0704 23.9813 75.8924 23.258 74.0324 23.258C73.8257 23.258 73.6604 23.444 73.5364 23.816C73.4124 24.1467 73.3504 24.498 73.3504 24.87C73.3504 27.6393 73.3917 30.14 73.4744 32.372C73.5157 34.604 73.5364 37.1047 73.5364 39.874L73.6604 39.998ZM90.6508 63.806C89.9068 63.806 89.4935 63.372 89.4108 62.504V61.698C89.4521 61.4913 89.4728 61.2433 89.4728 60.954L89.2248 60.706C89.5555 59.838 89.7208 58.9907 89.7208 58.164C89.7208 57.2133 89.6588 55.8493 89.5348 54.072L89.4108 49.98C89.4108 47.9133 89.4728 44.8133 89.5968 40.68C89.7621 37.0013 89.8448 33.8807 89.8448 31.318L89.7208 27.598C89.6381 26.482 89.5968 25.242 89.5968 23.878C89.5968 23.258 89.7415 22.824 90.0308 22.576C90.3201 22.2867 90.7748 22.142 91.3948 22.142C91.8081 22.142 92.1388 22.266 92.3868 22.514C92.4695 22.5553 93.0688 22.638 94.1848 22.762C95.2181 22.886 96.1068 23.072 96.8508 23.32C97.6361 23.568 98.0288 23.878 98.0288 24.25C98.0288 24.6633 97.6361 25.0767 96.8508 25.49C94.4948 24.7047 92.8208 24.312 91.8288 24.312L91.5188 24.684C91.5601 25.056 91.5808 25.9447 91.5808 27.35C91.5808 29.1273 91.5395 30.7187 91.4568 32.124C91.4155 33.5707 91.3948 35.1827 91.3948 36.96C91.3948 38.1173 91.6841 38.696 92.2628 38.696L93.2548 38.634C93.5855 38.5927 93.9368 38.572 94.3088 38.572C95.9208 38.572 96.7268 38.944 96.7268 39.688C96.7268 40.1427 96.6235 40.5353 96.4168 40.866C96.2101 41.1553 95.9001 41.3 95.4868 41.3C94.8668 41.3 94.3915 41.1347 94.0608 40.804L92.0768 40.494H91.7668L91.4568 40.804V40.99C91.5395 41.6927 91.5808 43.3253 91.5808 45.888C91.5808 47.5 91.5601 48.9673 91.5188 50.29L91.4568 54.692C91.4568 56.304 91.5188 57.9573 91.6428 59.652C91.6841 60.6027 91.8908 61.2433 92.2628 61.574C92.6348 61.8633 93.3168 62.008 94.3088 62.008L95.4248 61.946C95.7968 61.9047 96.2101 61.884 96.6648 61.884C97.8635 61.884 98.4628 62.1527 98.4628 62.69C98.4628 63.434 97.5535 63.806 95.7348 63.806H90.6508ZM108.684 63C107.733 63 107.175 62.7933 107.01 62.38C106.803 62.38 106.638 62.4007 106.514 62.442H106.018C105.109 62.442 104.53 62.2353 104.282 61.822C104.282 61.5327 104.447 61.2847 104.778 61.078L105.088 60.768H106.886L107.134 60.52L107.258 59.962L107.32 59.218C107.32 56.6967 107.258 54.444 107.134 52.46L107.01 50.166L106.886 45.64C106.886 44.028 106.948 41.61 107.072 38.386L107.196 31.194C107.196 28.0527 107.093 25.6553 106.886 24.002C106.514 23.878 105.894 23.816 105.026 23.816L104.344 23.878C104.096 23.9193 103.827 23.94 103.538 23.94C102.753 23.94 102.36 23.5887 102.36 22.886C102.36 22.7207 102.546 22.5553 102.918 22.39C103.29 22.2247 103.6 22.142 103.848 22.142C105.419 22.142 106.989 22.2247 108.56 22.39C109.511 22.4313 110.461 22.6173 111.412 22.948C112.156 23.196 112.528 23.5473 112.528 24.002C112.528 24.0847 112.466 24.25 112.342 24.498L110.916 24.622C110.627 24.374 110.027 24.25 109.118 24.25L108.808 24.436C108.932 24.808 108.994 25.9033 108.994 27.722C108.994 30.45 108.973 32.9093 108.932 35.1L108.808 42.478C108.808 44.338 108.891 46.5907 109.056 49.236C109.18 52.2533 109.242 54.5267 109.242 56.056V56.862C109.201 57.1513 109.18 57.5233 109.18 57.978C109.18 58.9287 109.242 59.5073 109.366 59.714L109.304 59.838C109.304 60.2513 109.759 60.458 110.668 60.458C111.04 60.458 111.35 60.4373 111.598 60.396H112.528C113.727 60.396 114.326 60.6853 114.326 61.264C114.326 61.636 114.202 61.946 113.954 62.194C113.706 62.4007 113.375 62.504 112.962 62.504C112.59 62.504 112.259 62.4627 111.97 62.38C111.639 62.3387 111.288 62.318 110.916 62.318C110.668 62.318 110.296 62.4213 109.8 62.628C109.304 62.876 108.932 63 108.684 63ZM135.859 63.248C135.528 63.248 135.28 63.124 135.115 62.876C134.991 62.628 134.867 62.256 134.743 61.76C134.702 61.4293 134.619 61.14 134.495 60.892L134.557 60.706C134.226 58.7633 133.524 56.3867 132.449 53.576L131.333 50.352C131.25 50.2693 130.858 49.2153 130.155 47.19L129.659 45.702C125.939 34.2113 123.604 27.9907 122.653 27.04C122.322 28.156 122.157 29.6027 122.157 31.38C122.157 32.3307 122.178 33.1573 122.219 33.86L122.281 36.278L122.219 37.766C122.178 38.2207 122.157 38.7167 122.157 39.254C122.157 40.1633 122.198 40.9487 122.281 41.61C122.364 42.9327 122.405 43.594 122.405 43.594H122.219C122.219 50.4967 122.364 54.2993 122.653 55.002V60.582C122.818 60.9127 122.901 61.3467 122.901 61.884C122.901 62.2147 122.777 62.504 122.529 62.752C122.322 63 122.054 63.124 121.723 63.124C120.855 63.124 120.421 62.008 120.421 59.776L120.545 57.792C120.628 57.172 120.669 56.49 120.669 55.746C120.669 53.762 120.607 50.786 120.483 46.818C120.359 42.85 120.297 39.874 120.297 37.89C120.297 36.6913 120.359 34.852 120.483 32.372C120.607 29.9333 120.669 28.1147 120.669 26.916V26.11C120.669 24.0847 121.041 22.762 121.785 22.142L121.971 22.328L122.591 22.204C122.756 22.2453 122.942 22.3693 123.149 22.576C123.314 22.7413 123.397 22.9273 123.397 23.134L123.521 23.506C123.521 23.5887 123.521 23.6713 123.521 23.754C123.562 23.7953 123.583 23.816 123.583 23.816C124.244 26.7507 125.732 30.8633 128.047 36.154C130.403 41.734 131.87 45.4333 132.449 47.252C132.862 48.6987 133.193 49.98 133.441 51.096C134.226 54.6093 135.156 57.3167 136.231 59.218L136.355 59.032C137.306 49.856 137.781 38.5927 137.781 25.242L137.719 24.498C137.678 24.2913 137.657 24.0227 137.657 23.692C137.657 22.824 137.946 22.39 138.525 22.39C138.897 22.39 139.207 22.576 139.455 22.948C139.744 23.32 139.889 23.7333 139.889 24.188V28.342L139.579 28.838C139.579 32.7647 139.352 39.2127 138.897 48.182C138.442 57.1513 138.008 62.0287 137.595 62.814L136.541 63.062V63.124L136.479 63.062L135.859 63.248ZM152.659 62.132L152.597 59.838C152.555 59.1767 152.535 58.4327 152.535 57.606C152.535 57.1927 152.555 56.8413 152.597 56.552L152.659 55.436C152.659 55.0227 152.576 54.5267 152.411 53.948C152.411 51.1787 152.204 46.0327 151.791 38.51C151.377 31.2353 151.15 26.296 151.109 23.692C148.546 23.692 146.831 23.63 145.963 23.506C145.136 23.2993 144.723 22.9687 144.723 22.514C144.929 22.0593 145.322 21.832 145.901 21.832C147.141 21.832 148.939 21.9147 151.295 22.08C153.444 22.2867 155.242 22.39 156.689 22.39H157.991L159.293 22.328C160.037 22.328 160.409 22.5967 160.409 23.134C160.409 23.382 160.264 23.5887 159.975 23.754C159.727 23.878 159.417 23.94 159.045 23.94C158.218 23.94 157.35 23.8987 156.441 23.816L153.775 23.692C153.609 23.692 153.527 23.754 153.527 23.878C153.485 24.002 153.465 24.3947 153.465 25.056C153.465 29.0653 153.713 35.1413 154.209 43.284C154.663 51.716 154.891 57.7713 154.891 61.45C154.891 61.7393 154.705 62.008 154.333 62.256C154.002 62.504 153.671 62.628 153.341 62.628L152.659 62.132ZM168.151 63.806C167.407 63.806 166.993 63.372 166.911 62.504V61.698C166.952 61.4913 166.973 61.2433 166.973 60.954L166.725 60.706C167.055 59.838 167.221 58.9907 167.221 58.164C167.221 57.2133 167.159 55.8493 167.035 54.072L166.911 49.98C166.911 47.9133 166.973 44.8133 167.097 40.68C167.262 37.0013 167.345 33.8807 167.345 31.318L167.221 27.598C167.138 26.482 167.097 25.242 167.097 23.878C167.097 23.258 167.241 22.824 167.531 22.576C167.82 22.2867 168.275 22.142 168.895 22.142C169.308 22.142 169.639 22.266 169.887 22.514C169.969 22.5553 170.569 22.638 171.685 22.762C172.718 22.886 173.607 23.072 174.351 23.32C175.136 23.568 175.529 23.878 175.529 24.25C175.529 24.6633 175.136 25.0767 174.351 25.49C171.995 24.7047 170.321 24.312 169.329 24.312L169.019 24.684C169.06 25.056 169.081 25.9447 169.081 27.35C169.081 29.1273 169.039 30.7187 168.957 32.124C168.915 33.5707 168.895 35.1827 168.895 36.96C168.895 38.1173 169.184 38.696 169.763 38.696L170.755 38.634C171.085 38.5927 171.437 38.572 171.809 38.572C173.421 38.572 174.227 38.944 174.227 39.688C174.227 40.1427 174.123 40.5353 173.917 40.866C173.71 41.1553 173.4 41.3 172.987 41.3C172.367 41.3 171.891 41.1347 171.561 40.804L169.577 40.494H169.267L168.957 40.804V40.99C169.039 41.6927 169.081 43.3253 169.081 45.888C169.081 47.5 169.06 48.9673 169.019 50.29L168.957 54.692C168.957 56.304 169.019 57.9573 169.143 59.652C169.184 60.6027 169.391 61.2433 169.763 61.574C170.135 61.8633 170.817 62.008 171.809 62.008L172.925 61.946C173.297 61.9047 173.71 61.884 174.165 61.884C175.363 61.884 175.963 62.1527 175.963 62.69C175.963 63.434 175.053 63.806 173.235 63.806H168.151ZM209.242 63.248C208.911 63.248 208.663 63.124 208.498 62.876C208.374 62.628 208.25 62.256 208.126 61.76C208.084 61.4293 208.002 61.14 207.878 60.892L207.94 60.706C207.609 58.7633 206.906 56.3867 205.832 53.576L204.716 50.352C204.633 50.2693 204.24 49.2153 203.538 47.19L203.042 45.702C199.322 34.2113 196.986 27.9907 196.036 27.04C195.705 28.156 195.54 29.6027 195.54 31.38C195.54 32.3307 195.56 33.1573 195.602 33.86L195.664 36.278L195.602 37.766C195.56 38.2207 195.54 38.7167 195.54 39.254C195.54 40.1633 195.581 40.9487 195.664 41.61C195.746 42.9327 195.788 43.594 195.788 43.594H195.602C195.602 50.4967 195.746 54.2993 196.036 55.002V60.582C196.201 60.9127 196.284 61.3467 196.284 61.884C196.284 62.2147 196.16 62.504 195.912 62.752C195.705 63 195.436 63.124 195.106 63.124C194.238 63.124 193.804 62.008 193.804 59.776L193.928 57.792C194.01 57.172 194.052 56.49 194.052 55.746C194.052 53.762 193.99 50.786 193.866 46.818C193.742 42.85 193.68 39.874 193.68 37.89C193.68 36.6913 193.742 34.852 193.866 32.372C193.99 29.9333 194.052 28.1147 194.052 26.916V26.11C194.052 24.0847 194.424 22.762 195.168 22.142L195.354 22.328L195.974 22.204C196.139 22.2453 196.325 22.3693 196.532 22.576C196.697 22.7413 196.78 22.9273 196.78 23.134L196.904 23.506C196.904 23.5887 196.904 23.6713 196.904 23.754C196.945 23.7953 196.966 23.816 196.966 23.816C197.627 26.7507 199.115 30.8633 201.43 36.154C203.786 41.734 205.253 45.4333 205.832 47.252C206.245 48.6987 206.576 49.98 206.824 51.096C207.609 54.6093 208.539 57.3167 209.614 59.218L209.738 59.032C210.688 49.856 211.164 38.5927 211.164 25.242L211.102 24.498C211.06 24.2913 211.04 24.0227 211.04 23.692C211.04 22.824 211.329 22.39 211.908 22.39C212.28 22.39 212.59 22.576 212.838 22.948C213.127 23.32 213.272 23.7333 213.272 24.188V28.342L212.962 28.838C212.962 32.7647 212.734 39.2127 212.28 48.182C211.825 57.1513 211.391 62.0287 210.978 62.814L209.924 63.062V63.124L209.862 63.062L209.242 63.248ZM234.163 63.558C233.543 63.558 233.151 63.4753 232.985 63.31C232.82 63.186 232.696 62.814 232.613 62.194C232.241 59.1767 232.014 57.296 231.931 56.552L231.621 54.072C230.712 53.8653 229.679 53.762 228.521 53.762L226.289 53.638C225.297 53.514 224.574 53.452 224.119 53.452C223.871 53.452 223.727 53.5553 223.685 53.762C223.685 53.886 223.665 53.948 223.623 53.948L223.499 55.188C223.458 55.932 223.231 57.42 222.817 59.652C222.611 60.768 222.363 61.636 222.073 62.256C221.743 62.9587 221.433 63.31 221.143 63.31C220.895 63.31 220.627 63.2067 220.337 63C220.048 62.752 219.903 62.504 219.903 62.256L219.965 62.07L220.027 61.884C220.771 58.9493 221.391 56.0353 221.887 53.142L222.631 49.298L223.375 44.586C223.375 44.586 223.603 43.222 224.057 40.494C224.264 39.378 224.636 37.58 225.173 35.1C225.752 32.2893 226.103 30.3673 226.227 29.334C226.269 29.21 226.351 28.4453 226.475 27.04C226.641 25.4693 226.785 24.312 226.909 23.568C227.033 22.4933 227.157 21.8733 227.281 21.708H227.715C227.839 21.7493 227.984 21.77 228.149 21.77C228.645 21.77 229.017 21.646 229.265 21.398C229.555 21.398 229.803 21.5013 230.009 21.708C230.257 21.8733 230.381 22.08 230.381 22.328C230.381 24.312 230.526 26.5853 230.815 29.148C230.981 30.4707 231.105 31.566 231.187 32.434C231.642 37.766 232.799 47.7687 234.659 62.442V62.628C234.659 63.0413 234.494 63.3513 234.163 63.558ZM231.311 52.398C230.898 46.446 230.113 37.6627 228.955 26.048L225.607 42.602C224.657 47.3553 224.181 50.352 224.181 51.592C224.181 51.7987 224.967 51.9847 226.537 52.15C228.108 52.3153 229.493 52.398 230.691 52.398H231.311ZM245.477 62.132L245.415 59.838C245.374 59.1767 245.353 58.4327 245.353 57.606C245.353 57.1927 245.374 56.8413 245.415 56.552L245.477 55.436C245.477 55.0227 245.394 54.5267 245.229 53.948C245.229 51.1787 245.022 46.0327 244.609 38.51C244.196 31.2353 243.968 26.296 243.927 23.692C241.364 23.692 239.649 23.63 238.781 23.506C237.954 23.2993 237.541 22.9687 237.541 22.514C237.748 22.0593 238.14 21.832 238.719 21.832C239.959 21.832 241.757 21.9147 244.113 22.08C246.262 22.2867 248.06 22.39 249.507 22.39H250.809L252.111 22.328C252.855 22.328 253.227 22.5967 253.227 23.134C253.227 23.382 253.082 23.5887 252.793 23.754C252.545 23.878 252.235 23.94 251.863 23.94C251.036 23.94 250.168 23.8987 249.259 23.816L246.593 23.692C246.428 23.692 246.345 23.754 246.345 23.878C246.304 24.002 246.283 24.3947 246.283 25.056C246.283 29.0653 246.531 35.1413 247.027 43.284C247.482 51.716 247.709 57.7713 247.709 61.45C247.709 61.7393 247.523 62.008 247.151 62.256C246.82 62.504 246.49 62.628 246.159 62.628L245.477 62.132ZM266.301 63.93C265.64 63.93 264.916 63.7027 264.131 63.248C263.387 62.8347 262.767 62.3387 262.271 61.76C261.692 61.016 261.238 58.9287 260.907 55.498C260.576 52.0673 260.37 48.1407 260.287 43.718C260.287 42.726 260.266 41.982 260.225 41.486C260.142 31.1113 259.977 24.9733 259.729 23.072L260.101 22.204C261.052 22.328 261.527 23.4647 261.527 25.614L261.713 42.044C261.713 43.2013 261.816 45.392 262.023 48.616C262.271 51.5093 262.395 53.7 262.395 55.188C262.395 59.9 263.945 62.256 267.045 62.256C268.946 62.256 270.166 57.916 270.703 49.236L270.765 47.996C271.054 36.6293 271.199 28.218 271.199 22.762L271.137 22.204C271.096 22.0387 271.075 21.8527 271.075 21.646C271.075 21.1913 271.426 20.964 272.129 20.964C272.625 20.964 272.935 21.088 273.059 21.336C273.142 21.7493 273.183 22.4727 273.183 23.506C273.183 26.6473 273.059 28.7553 272.811 29.83L272.873 30.202C272.873 30.7393 272.811 31.566 272.687 32.682L272.563 35.162V35.782C272.604 35.9473 272.625 36.154 272.625 36.402C272.542 37.394 272.501 38.3447 272.501 39.254C272.46 39.5433 272.439 39.998 272.439 40.618C272.356 44.5447 272.274 47.9547 272.191 50.848C272.067 54.444 271.571 57.482 270.703 59.962C269.794 62.6073 268.326 63.93 266.301 63.93ZM291.982 63.744C291.486 63.2067 290.949 61.7807 290.37 59.466C289.792 57.1513 289.254 54.5473 288.758 51.654C288.428 49.298 287.952 46.9627 287.332 44.648C286.836 42.5813 286.361 41.548 285.906 41.548H285.72C284.811 41.548 284.356 41.8373 284.356 42.416C284.356 45.392 284.522 49.918 284.852 55.994C285.018 59.714 285.204 61.884 285.41 62.504L284.914 63.558H284.046L283.55 63.062C282.889 43.966 282.558 30.946 282.558 24.002C282.558 23.5473 282.579 23.1753 282.62 22.886C282.703 22.5967 282.848 22.328 283.054 22.08C283.22 21.7907 283.509 21.646 283.922 21.646C286.03 21.646 287.725 22.1627 289.006 23.196C290.288 24.2293 290.928 25.7173 290.928 27.66V32.186C290.928 32.9713 290.66 34.0253 290.122 35.348C289.626 36.6707 289.068 37.89 288.448 39.006L287.642 40.556C288.097 42.664 288.986 46.4667 290.308 51.964C291.672 57.42 292.416 60.3133 292.54 60.644C292.582 60.6853 292.623 60.7887 292.664 60.954C292.747 61.1193 292.892 61.3673 293.098 61.698C293.388 62.2767 293.532 62.7727 293.532 63.186C293.532 63.7647 293.305 64.054 292.85 64.054L291.982 63.744ZM284.666 39.998C285.452 39.998 286.154 39.6053 286.774 38.82C287.394 38.0347 287.89 37.022 288.262 35.782C288.924 33.2607 289.254 31.256 289.254 29.768C289.254 28.8173 289.192 28.032 289.068 27.412C288.986 26.792 288.82 26.1307 288.572 25.428C288.076 23.9813 286.898 23.258 285.038 23.258C284.832 23.258 284.666 23.444 284.542 23.816C284.418 24.1467 284.356 24.498 284.356 24.87C284.356 27.6393 284.398 30.14 284.48 32.372C284.522 34.604 284.542 37.1047 284.542 39.874L284.666 39.998ZM301.657 63.806C300.913 63.806 300.499 63.372 300.417 62.504V61.698C300.458 61.4913 300.479 61.2433 300.479 60.954L300.231 60.706C300.561 59.838 300.727 58.9907 300.727 58.164C300.727 57.2133 300.665 55.8493 300.541 54.072L300.417 49.98C300.417 47.9133 300.479 44.8133 300.603 40.68C300.768 37.0013 300.851 33.8807 300.851 31.318L300.727 27.598C300.644 26.482 300.603 25.242 300.603 23.878C300.603 23.258 300.747 22.824 301.037 22.576C301.326 22.2867 301.781 22.142 302.401 22.142C302.814 22.142 303.145 22.266 303.393 22.514C303.475 22.5553 304.075 22.638 305.191 22.762C306.224 22.886 307.113 23.072 307.857 23.32C308.642 23.568 309.035 23.878 309.035 24.25C309.035 24.6633 308.642 25.0767 307.857 25.49C305.501 24.7047 303.827 24.312 302.835 24.312L302.525 24.684C302.566 25.056 302.587 25.9447 302.587 27.35C302.587 29.1273 302.545 30.7187 302.463 32.124C302.421 33.5707 302.401 35.1827 302.401 36.96C302.401 38.1173 302.69 38.696 303.269 38.696L304.261 38.634C304.591 38.5927 304.943 38.572 305.315 38.572C306.927 38.572 307.733 38.944 307.733 39.688C307.733 40.1427 307.629 40.5353 307.423 40.866C307.216 41.1553 306.906 41.3 306.493 41.3C305.873 41.3 305.397 41.1347 305.067 40.804L303.083 40.494H302.773L302.463 40.804V40.99C302.545 41.6927 302.587 43.3253 302.587 45.888C302.587 47.5 302.566 48.9673 302.525 50.29L302.463 54.692C302.463 56.304 302.525 57.9573 302.649 59.652C302.69 60.6027 302.897 61.2433 303.269 61.574C303.641 61.8633 304.323 62.008 305.315 62.008L306.431 61.946C306.803 61.9047 307.216 61.884 307.671 61.884C308.869 61.884 309.469 62.1527 309.469 62.69C309.469 63.434 308.559 63.806 306.741 63.806H301.657Z" fill="white"/>
<path d="M9.02132 110.544C8.38665 110.544 7.71799 110.295 7.01532 109.796C6.31265 109.297 5.81399 108.731 5.51932 108.096C5.24732 107.507 4.96399 105.637 4.66932 102.486C4.39732 99.3353 4.26132 96.9893 4.26132 95.448V93.646C4.23865 93.1247 4.22732 92.5467 4.22732 91.912C4.22732 90.7333 4.29532 89.566 4.43132 88.41C4.52199 87.8433 4.63532 87.356 4.77132 86.948C4.92999 86.54 5.14532 86.1433 5.41732 85.758C5.91599 84.9873 6.66399 84.4773 7.66132 84.228C8.18265 84.092 8.76065 84.024 9.39532 84.024C9.82599 84.024 10.2567 84.1487 10.6873 84.398C11.1407 84.6473 11.3673 84.942 11.3673 85.282C11.3673 85.5313 11.186 85.656 10.8233 85.656C10.6873 85.656 10.4267 85.5767 10.0413 85.418C9.70132 85.2593 9.39532 85.18 9.12332 85.18C8.48865 85.18 7.91065 85.316 7.38932 85.588C6.89065 85.8373 6.49399 86.1773 6.19932 86.608C5.94999 86.9707 5.73465 87.4693 5.55332 88.104C5.37199 88.7387 5.25865 89.3733 5.21332 90.008C5.14532 90.5747 5.11132 91.2547 5.11132 92.048L5.14532 93.952C5.16799 94.496 5.17932 95.0853 5.17932 95.72C5.17932 97.284 5.33799 99.5847 5.65532 102.622C5.97265 105.659 6.27865 107.416 6.57332 107.892C6.84532 108.323 7.24199 108.651 7.76332 108.878C8.30732 109.105 8.87399 109.218 9.46332 109.218C10.506 109.218 11.2993 108.889 11.8433 108.232C12.0473 107.96 12.2627 107.824 12.4893 107.824C12.6933 107.824 12.7953 107.983 12.7953 108.3C12.7953 108.708 12.6707 109.071 12.4213 109.388C12.172 109.683 11.832 109.909 11.4013 110.068C10.676 110.385 9.88265 110.544 9.02132 110.544ZM21.026 110.408C20.754 110.113 20.4593 109.331 20.142 108.062C19.8246 106.793 19.53 105.365 19.258 103.778C19.0766 102.486 18.816 101.205 18.476 99.936C18.204 98.8027 17.9433 98.236 17.694 98.236H17.592C17.0933 98.236 16.844 98.3947 16.844 98.712C16.844 100.344 16.9346 102.826 17.116 106.158C17.2066 108.198 17.3086 109.388 17.422 109.728L17.15 110.306H16.674L16.402 110.034C16.0393 99.562 15.858 92.422 15.858 88.614C15.858 88.3647 15.8693 88.1607 15.892 88.002C15.9373 87.8433 16.0166 87.696 16.13 87.56C16.2206 87.4013 16.3793 87.322 16.606 87.322C17.762 87.322 18.6913 87.6053 19.394 88.172C20.0966 88.7387 20.448 89.5547 20.448 90.62V93.102C20.448 93.5327 20.3006 94.1107 20.006 94.836C19.734 95.5613 19.428 96.23 19.088 96.842L18.646 97.692C18.8953 98.848 19.3826 100.933 20.108 103.948C20.856 106.94 21.264 108.527 21.332 108.708C21.3546 108.731 21.3773 108.787 21.4 108.878C21.4453 108.969 21.5246 109.105 21.638 109.286C21.7966 109.603 21.876 109.875 21.876 110.102C21.876 110.419 21.7513 110.578 21.502 110.578L21.026 110.408ZM17.014 97.386C17.4446 97.386 17.83 97.1707 18.17 96.74C18.51 96.3093 18.782 95.754 18.986 95.074C19.3486 93.6913 19.53 92.592 19.53 91.776C19.53 91.2547 19.496 90.824 19.428 90.484C19.3826 90.144 19.292 89.7813 19.156 89.396C18.884 88.6027 18.238 88.206 17.218 88.206C17.1046 88.206 17.014 88.308 16.946 88.512C16.878 88.6933 16.844 88.886 16.844 89.09C16.844 90.6087 16.8666 91.98 16.912 93.204C16.9346 94.428 16.946 95.7993 16.946 97.318L17.014 97.386ZM26.3313 110.442C25.9233 110.442 25.6966 110.204 25.6513 109.728V109.286C25.674 109.173 25.6853 109.037 25.6853 108.878L25.5493 108.742C25.7306 108.266 25.8213 107.801 25.8213 107.348C25.8213 106.827 25.7873 106.079 25.7193 105.104L25.6513 102.86C25.6513 101.727 25.6853 100.027 25.7533 97.76C25.844 95.7427 25.8893 94.0313 25.8893 92.626L25.8213 90.586C25.776 89.974 25.7533 89.294 25.7533 88.546C25.7533 88.206 25.8326 87.968 25.9913 87.832C26.15 87.6733 26.3993 87.594 26.7393 87.594C26.966 87.594 27.1473 87.662 27.2833 87.798C27.3286 87.8207 27.6573 87.866 28.2693 87.934C28.836 88.002 29.3233 88.104 29.7313 88.24C30.162 88.376 30.3773 88.546 30.3773 88.75C30.3773 88.9767 30.162 89.2033 29.7313 89.43C28.4393 88.9993 27.5213 88.784 26.9773 88.784L26.8073 88.988C26.83 89.192 26.8413 89.6793 26.8413 90.45C26.8413 91.4247 26.8186 92.2973 26.7733 93.068C26.7506 93.8613 26.7393 94.7453 26.7393 95.72C26.7393 96.3547 26.898 96.672 27.2153 96.672L27.7593 96.638C27.9406 96.6153 28.1333 96.604 28.3373 96.604C29.2213 96.604 29.6633 96.808 29.6633 97.216C29.6633 97.4653 29.6066 97.6807 29.4933 97.862C29.38 98.0207 29.21 98.1 28.9833 98.1C28.6433 98.1 28.3826 98.0093 28.2013 97.828L27.1133 97.658H26.9433L26.7733 97.828V97.93C26.8186 98.3153 26.8413 99.2107 26.8413 100.616C26.8413 101.5 26.83 102.305 26.8073 103.03L26.7733 105.444C26.7733 106.328 26.8073 107.235 26.8753 108.164C26.898 108.685 27.0113 109.037 27.2153 109.218C27.4193 109.377 27.7933 109.456 28.3373 109.456L28.9493 109.422C29.1533 109.399 29.38 109.388 29.6293 109.388C30.2866 109.388 30.6153 109.535 30.6153 109.83C30.6153 110.238 30.1166 110.442 29.1193 110.442H26.3313ZM27.9973 86.744C27.8386 86.744 27.6913 86.6987 27.5553 86.608C27.442 86.5173 27.3853 86.404 27.3853 86.268C27.3853 86.2 27.7026 85.9053 28.3373 85.384L29.4253 84.5L30.3433 83.786C31.114 83.1967 31.5333 82.868 31.6013 82.8C32.1 82.8 32.3493 82.97 32.3493 83.31L32.2473 83.854C31.0686 84.398 29.652 85.3613 27.9973 86.744ZM41.0825 110.306C40.7425 110.306 40.5272 110.261 40.4365 110.17C40.3459 110.102 40.2779 109.898 40.2325 109.558C40.0285 107.903 39.9039 106.872 39.8585 106.464L39.6885 105.104C39.1899 104.991 38.6232 104.934 37.9885 104.934L36.7645 104.866C36.2205 104.798 35.8239 104.764 35.5745 104.764C35.4385 104.764 35.3592 104.821 35.3365 104.934C35.3365 105.002 35.3252 105.036 35.3025 105.036L35.2345 105.716C35.2119 106.124 35.0872 106.94 34.8605 108.164C34.7472 108.776 34.6112 109.252 34.4525 109.592C34.2712 109.977 34.1012 110.17 33.9425 110.17C33.8065 110.17 33.6592 110.113 33.5005 110C33.3419 109.864 33.2625 109.728 33.2625 109.592L33.2965 109.49L33.3305 109.388C33.7385 107.779 34.0785 106.181 34.3505 104.594L34.7585 102.486L35.1665 99.902C35.1665 99.902 35.2912 99.154 35.5405 97.658C35.6539 97.046 35.8579 96.06 36.1525 94.7C36.4699 93.1587 36.6625 92.1047 36.7305 91.538C36.7532 91.47 36.7985 91.0507 36.8665 90.28C36.9572 89.4187 37.0365 88.784 37.1045 88.376C37.1725 87.7867 37.2405 87.4467 37.3085 87.356H37.5465C37.6145 87.3787 37.6939 87.39 37.7845 87.39C38.0565 87.39 38.2605 87.322 38.3965 87.186C38.5552 87.186 38.6912 87.2427 38.8045 87.356C38.9405 87.4467 39.0085 87.56 39.0085 87.696C39.0085 88.784 39.0879 90.0307 39.2465 91.436C39.3372 92.1613 39.4052 92.762 39.4505 93.238C39.6999 96.162 40.3345 101.647 41.3545 109.694V109.796C41.3545 110.023 41.2639 110.193 41.0825 110.306ZM39.5185 104.186C39.2919 100.922 38.8612 96.1053 38.2265 89.736L36.3905 98.814C35.8692 101.421 35.6085 103.064 35.6085 103.744C35.6085 103.857 36.0392 103.959 36.9005 104.05C37.7619 104.141 38.5212 104.186 39.1785 104.186H39.5185ZM47.2867 109.524L47.2527 108.266C47.2301 107.903 47.2187 107.495 47.2187 107.042C47.2187 106.815 47.2301 106.623 47.2527 106.464L47.2867 105.852C47.2867 105.625 47.2414 105.353 47.1507 105.036C47.1507 103.517 47.0374 100.695 46.8107 96.57C46.5841 92.5807 46.4594 89.872 46.4367 88.444C45.0314 88.444 44.0907 88.41 43.6147 88.342C43.1614 88.2287 42.9347 88.0473 42.9347 87.798C43.0481 87.5487 43.2634 87.424 43.5807 87.424C44.2607 87.424 45.2467 87.4693 46.5387 87.56C47.7174 87.6733 48.7034 87.73 49.4967 87.73H50.2107L50.9247 87.696C51.3327 87.696 51.5367 87.8433 51.5367 88.138C51.5367 88.274 51.4574 88.3873 51.2987 88.478C51.1627 88.546 50.9927 88.58 50.7887 88.58C50.3354 88.58 49.8594 88.5573 49.3607 88.512L47.8987 88.444C47.8081 88.444 47.7627 88.478 47.7627 88.546C47.7401 88.614 47.7287 88.8293 47.7287 89.192C47.7287 91.3907 47.8647 94.7227 48.1367 99.188C48.3861 103.812 48.5107 107.133 48.5107 109.15C48.5107 109.309 48.4087 109.456 48.2047 109.592C48.0234 109.728 47.8421 109.796 47.6607 109.796L47.2867 109.524ZM56.9725 110C56.4511 110 56.1451 109.887 56.0545 109.66C55.9411 109.66 55.8505 109.671 55.7825 109.694H55.5105C55.0118 109.694 54.6945 109.581 54.5585 109.354C54.5585 109.195 54.6491 109.059 54.8305 108.946L55.0005 108.776H55.9865L56.1225 108.64L56.1905 108.334L56.2245 107.926C56.2245 106.543 56.1905 105.308 56.1225 104.22L56.0545 102.962L55.9865 100.48C55.9865 99.596 56.0205 98.27 56.0885 96.502L56.1565 92.558C56.1565 90.8353 56.0998 89.5207 55.9865 88.614C55.7825 88.546 55.4425 88.512 54.9665 88.512L54.5925 88.546C54.4565 88.5687 54.3091 88.58 54.1505 88.58C53.7198 88.58 53.5045 88.3873 53.5045 88.002C53.5045 87.9113 53.6065 87.8207 53.8105 87.73C54.0145 87.6393 54.1845 87.594 54.3205 87.594C55.1818 87.594 56.0431 87.6393 56.9045 87.73C57.4258 87.7527 57.9471 87.8547 58.4685 88.036C58.8765 88.172 59.0805 88.3647 59.0805 88.614C59.0805 88.6593 59.0465 88.75 58.9785 88.886L58.1965 88.954C58.0378 88.818 57.7091 88.75 57.2105 88.75L57.0405 88.852C57.1085 89.056 57.1425 89.6567 57.1425 90.654C57.1425 92.15 57.1311 93.4987 57.1085 94.7L57.0405 98.746C57.0405 99.766 57.0858 101.001 57.1765 102.452C57.2445 104.107 57.2785 105.353 57.2785 106.192V106.634C57.2558 106.793 57.2445 106.997 57.2445 107.246C57.2445 107.767 57.2785 108.085 57.3465 108.198L57.3125 108.266C57.3125 108.493 57.5618 108.606 58.0605 108.606C58.2645 108.606 58.4345 108.595 58.5705 108.572H59.0805C59.7378 108.572 60.0665 108.731 60.0665 109.048C60.0665 109.252 59.9985 109.422 59.8625 109.558C59.7265 109.671 59.5451 109.728 59.3185 109.728C59.1145 109.728 58.9331 109.705 58.7745 109.66C58.5931 109.637 58.4005 109.626 58.1965 109.626C58.0605 109.626 57.8565 109.683 57.5845 109.796C57.3125 109.932 57.1085 110 56.9725 110ZM66.7408 110.646C64.0888 110.646 62.7628 106.475 62.7628 98.134V96.944C62.7628 90.62 63.5788 87.458 65.2108 87.458C65.3242 87.458 65.4828 87.492 65.6868 87.56C66.4122 87.8093 67.1262 87.968 67.8288 88.036C68.2595 88.1267 68.6902 88.5687 69.1208 89.362C69.5968 90.178 69.9482 91.2547 70.1748 92.592C70.4242 93.9293 70.5488 95.3007 70.5488 96.706L70.4808 96.876C70.4808 97.624 70.4922 98.2927 70.5148 98.882L70.5488 100.922C70.5488 102.078 70.5035 103.121 70.4128 104.05C70.2768 105.455 70.0502 106.668 69.7328 107.688C69.5288 108.3 69.2908 108.81 69.0188 109.218C68.7695 109.626 68.4522 109.966 68.0668 110.238C67.7042 110.51 67.2622 110.646 66.7408 110.646ZM66.6048 109.66C67.4888 109.66 68.1462 109.037 68.5768 107.79C69.0075 106.521 69.2682 105.229 69.3588 103.914C69.4495 102.554 69.4948 101.466 69.4948 100.65C69.4948 99.7433 69.4268 98.406 69.2908 96.638C69.1775 94.666 69.1208 93.3287 69.1208 92.626L68.9848 92.354L69.0528 92.184C69.0528 91.1867 68.7695 90.3253 68.2028 89.6C67.6588 88.8747 66.9902 88.512 66.1968 88.512C65.1542 88.512 64.5308 89.0107 64.3268 90.008C64.2815 90.348 64.2362 90.8353 64.1908 91.47C64.1908 93.1473 64.1228 94.292 63.9868 94.904C63.9868 95.244 63.9528 95.7767 63.8848 96.502L63.8168 98.1C63.8168 98.5987 63.8282 99.0407 63.8508 99.426L63.8848 100.786C63.8848 101.851 63.9755 103.075 64.1568 104.458C64.2928 105.478 64.4515 106.339 64.6328 107.042C64.8142 107.745 65.0748 108.345 65.4148 108.844C65.7548 109.388 66.1515 109.66 66.6048 109.66ZM83.6287 110.136C83.4474 110.136 83.3114 110.068 83.2207 109.932C83.1527 109.796 83.0847 109.592 83.0167 109.32C82.9941 109.139 82.9487 108.98 82.8807 108.844L82.9147 108.742C82.7334 107.677 82.3481 106.373 81.7587 104.832L81.1467 103.064C81.1014 103.019 80.8861 102.441 80.5007 101.33L80.2287 100.514C78.1887 94.2127 76.9081 90.8013 76.3867 90.28C76.2054 90.892 76.1147 91.6853 76.1147 92.66C76.1147 93.1813 76.1261 93.6347 76.1487 94.02L76.1827 95.346L76.1487 96.162C76.1261 96.4113 76.1147 96.6833 76.1147 96.978C76.1147 97.4767 76.1374 97.9073 76.1827 98.27C76.2281 98.9953 76.2507 99.358 76.2507 99.358H76.1487C76.1487 103.143 76.2281 105.229 76.3867 105.614V108.674C76.4774 108.855 76.5227 109.093 76.5227 109.388C76.5227 109.569 76.4547 109.728 76.3187 109.864C76.2054 110 76.0581 110.068 75.8767 110.068C75.4007 110.068 75.1627 109.456 75.1627 108.232L75.2307 107.144C75.2761 106.804 75.2987 106.43 75.2987 106.022C75.2987 104.934 75.2647 103.302 75.1967 101.126C75.1287 98.95 75.0947 97.318 75.0947 96.23C75.0947 95.5727 75.1287 94.564 75.1967 93.204C75.2647 91.8667 75.2987 90.8693 75.2987 90.212V89.77C75.2987 88.6593 75.5027 87.934 75.9107 87.594L76.0127 87.696L76.3527 87.628C76.4434 87.6507 76.5454 87.7187 76.6587 87.832C76.7494 87.9227 76.7947 88.0247 76.7947 88.138L76.8627 88.342C76.8627 88.3873 76.8627 88.4327 76.8627 88.478C76.8854 88.5007 76.8967 88.512 76.8967 88.512C77.2594 90.1213 78.0754 92.3767 79.3447 95.278C80.6367 98.338 81.4414 100.367 81.7587 101.364C81.9854 102.157 82.1667 102.86 82.3027 103.472C82.7334 105.399 83.2434 106.883 83.8327 107.926L83.9007 107.824C84.4221 102.792 84.6827 96.6153 84.6827 89.294L84.6487 88.886C84.6261 88.7727 84.6147 88.6253 84.6147 88.444C84.6147 87.968 84.7734 87.73 85.0907 87.73C85.2947 87.73 85.4647 87.832 85.6007 88.036C85.7594 88.24 85.8387 88.4667 85.8387 88.716V90.994L85.6687 91.266C85.6687 93.4193 85.5441 96.9553 85.2947 101.874C85.0454 106.793 84.8074 109.467 84.5807 109.898L84.0027 110.034V110.068L83.9687 110.034L83.6287 110.136ZM97.054 110.17C96.8726 110.17 96.782 109.864 96.782 109.252C96.6913 107.688 96.646 105.716 96.646 103.336C96.646 101.84 96.6573 100.503 96.68 99.324L96.714 95.312C96.714 93.5893 96.6686 91.4587 96.578 88.92C96.374 88.7387 96.272 88.512 96.272 88.24C96.272 88.0813 96.3626 87.9227 96.544 87.764C96.748 87.5827 96.9293 87.492 97.088 87.492C97.2693 87.492 97.4393 87.5827 97.598 87.764L97.972 88.07C98.108 88.138 98.3686 88.206 98.754 88.274C99.1393 88.342 99.4113 88.41 99.57 88.478C99.91 88.6593 100.363 89.0107 100.93 89.532C101.474 90.076 101.848 90.416 102.052 90.552L102.018 90.62C102.041 90.756 102.211 91.0507 102.528 91.504C102.777 91.844 102.981 92.1613 103.14 92.456C103.503 93.4987 103.684 94.8473 103.684 96.502C103.684 96.7967 103.673 97.0573 103.65 97.284V98.1V98.372L103.616 98.712C103.616 99.1427 103.684 99.4827 103.82 99.732C103.684 100.457 103.514 101.829 103.31 103.846C103.242 104.435 103.129 105.059 102.97 105.716C102.811 106.373 102.619 106.917 102.392 107.348C101.803 108.459 100.817 109.399 99.434 110.17H97.054ZM99.298 109.184C99.4566 109.003 99.604 108.855 99.74 108.742C99.74 108.742 99.8193 108.685 99.978 108.572L100.25 108.334C101.837 106.906 102.63 104.186 102.63 100.174V99.528C102.607 99.3467 102.596 99.154 102.596 98.95L102.46 95.516C102.392 94.2013 101.995 92.8413 101.27 91.436C100.93 90.7333 100.465 90.1667 99.876 89.736C99.3093 89.2827 98.7086 89.056 98.074 89.056C97.802 89.056 97.666 91.1527 97.666 95.346C97.666 100.197 97.802 104.424 98.074 108.028L98.04 108.674L98.176 108.742L98.244 109.184H99.298ZM108.874 110.442C108.466 110.442 108.24 110.204 108.194 109.728V109.286C108.217 109.173 108.228 109.037 108.228 108.878L108.092 108.742C108.274 108.266 108.364 107.801 108.364 107.348C108.364 106.827 108.33 106.079 108.262 105.104L108.194 102.86C108.194 101.727 108.228 100.027 108.296 97.76C108.387 95.7427 108.432 94.0313 108.432 92.626L108.364 90.586C108.319 89.974 108.296 89.294 108.296 88.546C108.296 88.206 108.376 87.968 108.534 87.832C108.693 87.6733 108.942 87.594 109.282 87.594C109.509 87.594 109.69 87.662 109.826 87.798C109.872 87.8207 110.2 87.866 110.812 87.934C111.379 88.002 111.866 88.104 112.274 88.24C112.705 88.376 112.92 88.546 112.92 88.75C112.92 88.9767 112.705 89.2033 112.274 89.43C110.982 88.9993 110.064 88.784 109.52 88.784L109.35 88.988C109.373 89.192 109.384 89.6793 109.384 90.45C109.384 91.4247 109.362 92.2973 109.316 93.068C109.294 93.8613 109.282 94.7453 109.282 95.72C109.282 96.3547 109.441 96.672 109.758 96.672L110.302 96.638C110.484 96.6153 110.676 96.604 110.88 96.604C111.764 96.604 112.206 96.808 112.206 97.216C112.206 97.4653 112.15 97.6807 112.036 97.862C111.923 98.0207 111.753 98.1 111.526 98.1C111.186 98.1 110.926 98.0093 110.744 97.828L109.656 97.658H109.486L109.316 97.828V97.93C109.362 98.3153 109.384 99.2107 109.384 100.616C109.384 101.5 109.373 102.305 109.35 103.03L109.316 105.444C109.316 106.328 109.35 107.235 109.418 108.164C109.441 108.685 109.554 109.037 109.758 109.218C109.962 109.377 110.336 109.456 110.88 109.456L111.492 109.422C111.696 109.399 111.923 109.388 112.172 109.388C112.83 109.388 113.158 109.535 113.158 109.83C113.158 110.238 112.66 110.442 111.662 110.442H108.874ZM120.562 113.4V113.332L120.528 113.264C120.528 113.196 120.721 113.037 121.106 112.788C121.469 112.516 121.877 112.244 122.33 111.972C122.829 111.632 123.089 111.439 123.112 111.394C123.452 111.009 123.713 110.408 123.894 109.592C124.098 108.753 124.2 107.937 124.2 107.144C124.2 104.719 124.155 101.704 124.064 98.1C123.951 94.7453 123.894 91.742 123.894 89.09L123.69 88.716C123.531 88.6707 123.259 88.614 122.874 88.546C122.443 88.5233 122.058 88.4327 121.718 88.274C121.378 88.1607 121.208 88.0133 121.208 87.832C121.208 87.7413 121.299 87.6507 121.48 87.56C121.661 87.4693 121.809 87.424 121.922 87.424C122.353 87.424 123.033 87.5033 123.962 87.662C124.914 87.8207 125.753 88.0133 126.478 88.24C127.226 88.4667 127.6 88.6707 127.6 88.852C127.6 88.988 127.543 89.1013 127.43 89.192C127.339 89.26 127.215 89.294 127.056 89.294C126.897 89.294 126.591 89.2373 126.138 89.124C125.798 89.0107 125.492 88.954 125.22 88.954C125.016 88.954 124.914 89.1807 124.914 89.634C124.914 90.8807 124.971 93.238 125.084 96.706C125.197 99.3127 125.254 101.659 125.254 103.744V107.484C125.118 107.779 125.05 108.255 125.05 108.912C125.05 109.864 124.778 110.941 124.234 112.142C123.939 112.754 123.554 113.241 123.078 113.604C122.625 113.989 122.126 114.182 121.582 114.182H121.344L120.562 113.4ZM137.604 110.306C137.264 110.306 137.049 110.261 136.958 110.17C136.867 110.102 136.799 109.898 136.754 109.558C136.55 107.903 136.425 106.872 136.38 106.464L136.21 105.104C135.711 104.991 135.145 104.934 134.51 104.934L133.286 104.866C132.742 104.798 132.345 104.764 132.096 104.764C131.96 104.764 131.881 104.821 131.858 104.934C131.858 105.002 131.847 105.036 131.824 105.036L131.756 105.716C131.733 106.124 131.609 106.94 131.382 108.164C131.269 108.776 131.133 109.252 130.974 109.592C130.793 109.977 130.623 110.17 130.464 110.17C130.328 110.17 130.181 110.113 130.022 110C129.863 109.864 129.784 109.728 129.784 109.592L129.818 109.49L129.852 109.388C130.26 107.779 130.6 106.181 130.872 104.594L131.28 102.486L131.688 99.902C131.688 99.902 131.813 99.154 132.062 97.658C132.175 97.046 132.379 96.06 132.674 94.7C132.991 93.1587 133.184 92.1047 133.252 91.538C133.275 91.47 133.32 91.0507 133.388 90.28C133.479 89.4187 133.558 88.784 133.626 88.376C133.694 87.7867 133.762 87.4467 133.83 87.356H134.068C134.136 87.3787 134.215 87.39 134.306 87.39C134.578 87.39 134.782 87.322 134.918 87.186C135.077 87.186 135.213 87.2427 135.326 87.356C135.462 87.4467 135.53 87.56 135.53 87.696C135.53 88.784 135.609 90.0307 135.768 91.436C135.859 92.1613 135.927 92.762 135.972 93.238C136.221 96.162 136.856 101.647 137.876 109.694V109.796C137.876 110.023 137.785 110.193 137.604 110.306ZM136.04 104.186C135.813 100.922 135.383 96.1053 134.748 89.736L132.912 98.814C132.391 101.421 132.13 103.064 132.13 103.744C132.13 103.857 132.561 103.959 133.422 104.05C134.283 104.141 135.043 104.186 135.7 104.186H136.04ZM146.766 110.408C146.494 110.113 146.2 109.331 145.882 108.062C145.565 106.793 145.27 105.365 144.998 103.778C144.817 102.486 144.556 101.205 144.216 99.936C143.944 98.8027 143.684 98.236 143.434 98.236H143.332C142.834 98.236 142.584 98.3947 142.584 98.712C142.584 100.344 142.675 102.826 142.856 106.158C142.947 108.198 143.049 109.388 143.162 109.728L142.89 110.306H142.414L142.142 110.034C141.78 99.562 141.598 92.422 141.598 88.614C141.598 88.3647 141.61 88.1607 141.632 88.002C141.678 87.8433 141.757 87.696 141.87 87.56C141.961 87.4013 142.12 87.322 142.346 87.322C143.502 87.322 144.432 87.6053 145.134 88.172C145.837 88.7387 146.188 89.5547 146.188 90.62V93.102C146.188 93.5327 146.041 94.1107 145.746 94.836C145.474 95.5613 145.168 96.23 144.828 96.842L144.386 97.692C144.636 98.848 145.123 100.933 145.848 103.948C146.596 106.94 147.004 108.527 147.072 108.708C147.095 108.731 147.118 108.787 147.14 108.878C147.186 108.969 147.265 109.105 147.378 109.286C147.537 109.603 147.616 109.875 147.616 110.102C147.616 110.419 147.492 110.578 147.242 110.578L146.766 110.408ZM142.754 97.386C143.185 97.386 143.57 97.1707 143.91 96.74C144.25 96.3093 144.522 95.754 144.726 95.074C145.089 93.6913 145.27 92.592 145.27 91.776C145.27 91.2547 145.236 90.824 145.168 90.484C145.123 90.144 145.032 89.7813 144.896 89.396C144.624 88.6027 143.978 88.206 142.958 88.206C142.845 88.206 142.754 88.308 142.686 88.512C142.618 88.6933 142.584 88.886 142.584 89.09C142.584 90.6087 142.607 91.98 142.652 93.204C142.675 94.428 142.686 95.7993 142.686 97.318L142.754 97.386ZM152.072 110.17C151.89 110.17 151.8 109.864 151.8 109.252C151.709 107.688 151.664 105.716 151.664 103.336C151.664 101.84 151.675 100.503 151.698 99.324L151.732 95.312C151.732 93.5893 151.686 91.4587 151.596 88.92C151.392 88.7387 151.29 88.512 151.29 88.24C151.29 88.0813 151.38 87.9227 151.562 87.764C151.766 87.5827 151.947 87.492 152.106 87.492C152.287 87.492 152.457 87.5827 152.616 87.764L152.99 88.07C153.126 88.138 153.386 88.206 153.772 88.274C154.157 88.342 154.429 88.41 154.588 88.478C154.928 88.6593 155.381 89.0107 155.948 89.532C156.492 90.076 156.866 90.416 157.07 90.552L157.036 90.62C157.058 90.756 157.228 91.0507 157.546 91.504C157.795 91.844 157.999 92.1613 158.158 92.456C158.52 93.4987 158.702 94.8473 158.702 96.502C158.702 96.7967 158.69 97.0573 158.668 97.284V98.1V98.372L158.634 98.712C158.634 99.1427 158.702 99.4827 158.838 99.732C158.702 100.457 158.532 101.829 158.328 103.846C158.26 104.435 158.146 105.059 157.988 105.716C157.829 106.373 157.636 106.917 157.41 107.348C156.82 108.459 155.834 109.399 154.452 110.17H152.072ZM154.316 109.184C154.474 109.003 154.622 108.855 154.758 108.742C154.758 108.742 154.837 108.685 154.996 108.572L155.268 108.334C156.854 106.906 157.648 104.186 157.648 100.174V99.528C157.625 99.3467 157.614 99.154 157.614 98.95L157.478 95.516C157.41 94.2013 157.013 92.8413 156.288 91.436C155.948 90.7333 155.483 90.1667 154.894 89.736C154.327 89.2827 153.726 89.056 153.092 89.056C152.82 89.056 152.684 91.1527 152.684 95.346C152.684 100.197 152.82 104.424 153.092 108.028L153.058 108.674L153.194 108.742L153.262 109.184H154.316ZM165.082 110C164.561 110 164.255 109.887 164.164 109.66C164.051 109.66 163.96 109.671 163.892 109.694H163.62C163.121 109.694 162.804 109.581 162.668 109.354C162.668 109.195 162.759 109.059 162.94 108.946L163.11 108.776H164.096L164.232 108.64L164.3 108.334L164.334 107.926C164.334 106.543 164.3 105.308 164.232 104.22L164.164 102.962L164.096 100.48C164.096 99.596 164.13 98.27 164.198 96.502L164.266 92.558C164.266 90.8353 164.209 89.5207 164.096 88.614C163.892 88.546 163.552 88.512 163.076 88.512L162.702 88.546C162.566 88.5687 162.419 88.58 162.26 88.58C161.829 88.58 161.614 88.3873 161.614 88.002C161.614 87.9113 161.716 87.8207 161.92 87.73C162.124 87.6393 162.294 87.594 162.43 87.594C163.291 87.594 164.153 87.6393 165.014 87.73C165.535 87.7527 166.057 87.8547 166.578 88.036C166.986 88.172 167.19 88.3647 167.19 88.614C167.19 88.6593 167.156 88.75 167.088 88.886L166.306 88.954C166.147 88.818 165.819 88.75 165.32 88.75L165.15 88.852C165.218 89.056 165.252 89.6567 165.252 90.654C165.252 92.15 165.241 93.4987 165.218 94.7L165.15 98.746C165.15 99.766 165.195 101.001 165.286 102.452C165.354 104.107 165.388 105.353 165.388 106.192V106.634C165.365 106.793 165.354 106.997 165.354 107.246C165.354 107.767 165.388 108.085 165.456 108.198L165.422 108.266C165.422 108.493 165.671 108.606 166.17 108.606C166.374 108.606 166.544 108.595 166.68 108.572H167.19C167.847 108.572 168.176 108.731 168.176 109.048C168.176 109.252 168.108 109.422 167.972 109.558C167.836 109.671 167.655 109.728 167.428 109.728C167.224 109.728 167.043 109.705 166.884 109.66C166.703 109.637 166.51 109.626 166.306 109.626C166.17 109.626 165.966 109.683 165.694 109.796C165.422 109.932 165.218 110 165.082 110ZM179.984 110.136C179.803 110.136 179.667 110.068 179.576 109.932C179.508 109.796 179.44 109.592 179.372 109.32C179.35 109.139 179.304 108.98 179.236 108.844L179.27 108.742C179.089 107.677 178.704 106.373 178.114 104.832L177.502 103.064C177.457 103.019 177.242 102.441 176.856 101.33L176.584 100.514C174.544 94.2127 173.264 90.8013 172.742 90.28C172.561 90.892 172.47 91.6853 172.47 92.66C172.47 93.1813 172.482 93.6347 172.504 94.02L172.538 95.346L172.504 96.162C172.482 96.4113 172.47 96.6833 172.47 96.978C172.47 97.4767 172.493 97.9073 172.538 98.27C172.584 98.9953 172.606 99.358 172.606 99.358H172.504C172.504 103.143 172.584 105.229 172.742 105.614V108.674C172.833 108.855 172.878 109.093 172.878 109.388C172.878 109.569 172.81 109.728 172.674 109.864C172.561 110 172.414 110.068 172.232 110.068C171.756 110.068 171.518 109.456 171.518 108.232L171.586 107.144C171.632 106.804 171.654 106.43 171.654 106.022C171.654 104.934 171.62 103.302 171.552 101.126C171.484 98.95 171.45 97.318 171.45 96.23C171.45 95.5727 171.484 94.564 171.552 93.204C171.62 91.8667 171.654 90.8693 171.654 90.212V89.77C171.654 88.6593 171.858 87.934 172.266 87.594L172.368 87.696L172.708 87.628C172.799 87.6507 172.901 87.7187 173.014 87.832C173.105 87.9227 173.15 88.0247 173.15 88.138L173.218 88.342C173.218 88.3873 173.218 88.4327 173.218 88.478C173.241 88.5007 173.252 88.512 173.252 88.512C173.615 90.1213 174.431 92.3767 175.7 95.278C176.992 98.338 177.797 100.367 178.114 101.364C178.341 102.157 178.522 102.86 178.658 103.472C179.089 105.399 179.599 106.883 180.188 107.926L180.256 107.824C180.778 102.792 181.038 96.6153 181.038 89.294L181.004 88.886C180.982 88.7727 180.97 88.6253 180.97 88.444C180.97 87.968 181.129 87.73 181.446 87.73C181.65 87.73 181.82 87.832 181.956 88.036C182.115 88.24 182.194 88.4667 182.194 88.716V90.994L182.024 91.266C182.024 93.4193 181.9 96.9553 181.65 101.874C181.401 106.793 181.163 109.467 180.936 109.898L180.358 110.034V110.068L180.324 110.034L179.984 110.136ZM187.327 110.408C187.078 110.363 186.84 110.261 186.613 110.102C186.386 109.966 186.262 109.796 186.239 109.592L186.409 109.32C186.5 109.32 186.704 109.354 187.021 109.422C187.27 109.513 187.474 109.558 187.633 109.558C188.132 109.558 188.574 109.365 188.959 108.98C189.344 108.572 189.639 108.051 189.843 107.416C190.16 106.237 190.319 105.127 190.319 104.084C190.319 102.52 189.843 100.843 188.891 99.052C188.302 98.0093 187.848 97.182 187.531 96.57C187.214 95.958 186.93 95.2553 186.681 94.462C186.386 93.5327 186.239 92.6373 186.239 91.776C186.239 90.96 186.443 89.9967 186.851 88.886C187.055 88.3647 187.338 87.9453 187.701 87.628C188.086 87.288 188.494 87.118 188.925 87.118C189.22 87.118 189.503 87.22 189.775 87.424C190.07 87.628 190.217 87.8433 190.217 88.07C190.217 88.2513 190.07 88.342 189.775 88.342C189.684 88.342 189.571 88.308 189.435 88.24C189.299 88.172 189.174 88.138 189.061 88.138C188.721 88.138 188.415 88.274 188.143 88.546C187.871 88.818 187.667 89.1693 187.531 89.6C187.259 90.4387 187.123 91.2093 187.123 91.912C187.123 92.3427 187.18 92.7847 187.293 93.238C187.316 93.374 187.338 93.4873 187.361 93.578C187.384 93.6687 187.395 93.7367 187.395 93.782L187.599 94.462L187.769 95.074L188.041 95.686C188.109 95.8447 188.177 95.992 188.245 96.128C188.336 96.2413 188.415 96.3547 188.483 96.468L188.891 97.182C188.982 97.318 189.174 97.6467 189.469 98.168C189.764 98.6667 190.036 99.1993 190.285 99.766C190.512 100.242 190.682 100.695 190.795 101.126C190.908 101.534 191.01 102.033 191.101 102.622C191.169 103.189 191.203 103.812 191.203 104.492C191.203 105.58 191.056 106.6 190.761 107.552C190.353 108.685 189.764 109.479 188.993 109.932C188.562 110.204 188.064 110.34 187.497 110.34L187.327 110.408ZM190.047 88.24C190.047 88.2173 190.036 88.206 190.013 88.206V88.24H190.047ZM201.777 110.442C201.369 110.442 201.142 110.204 201.097 109.728V109.286C201.119 109.173 201.131 109.037 201.131 108.878L200.995 108.742C201.176 108.266 201.267 107.801 201.267 107.348C201.267 106.827 201.233 106.079 201.165 105.104L201.097 102.86C201.097 101.727 201.131 100.027 201.199 97.76C201.289 95.7427 201.335 94.0313 201.335 92.626L201.267 90.586C201.221 89.974 201.199 89.294 201.199 88.546C201.199 88.206 201.278 87.968 201.437 87.832C201.595 87.6733 201.845 87.594 202.185 87.594C202.411 87.594 202.593 87.662 202.729 87.798C202.774 87.8207 203.103 87.866 203.715 87.934C204.281 88.002 204.769 88.104 205.177 88.24C205.607 88.376 205.823 88.546 205.823 88.75C205.823 88.9767 205.607 89.2033 205.177 89.43C203.885 88.9993 202.967 88.784 202.423 88.784L202.253 88.988C202.275 89.192 202.287 89.6793 202.287 90.45C202.287 91.4247 202.264 92.2973 202.219 93.068C202.196 93.8613 202.185 94.7453 202.185 95.72C202.185 96.3547 202.343 96.672 202.661 96.672L203.205 96.638C203.386 96.6153 203.579 96.604 203.783 96.604C204.667 96.604 205.109 96.808 205.109 97.216C205.109 97.4653 205.052 97.6807 204.939 97.862C204.825 98.0207 204.655 98.1 204.429 98.1C204.089 98.1 203.828 98.0093 203.647 97.828L202.559 97.658H202.389L202.219 97.828V97.93C202.264 98.3153 202.287 99.2107 202.287 100.616C202.287 101.5 202.275 102.305 202.253 103.03L202.219 105.444C202.219 106.328 202.253 107.235 202.321 108.164C202.343 108.685 202.457 109.037 202.661 109.218C202.865 109.377 203.239 109.456 203.783 109.456L204.395 109.422C204.599 109.399 204.825 109.388 205.075 109.388C205.732 109.388 206.061 109.535 206.061 109.83C206.061 110.238 205.562 110.442 204.565 110.442H201.777ZM203.443 86.744C203.284 86.744 203.137 86.6987 203.001 86.608C202.887 86.5173 202.831 86.404 202.831 86.268C202.831 86.2 203.148 85.9053 203.783 85.384L204.871 84.5L205.789 83.786C206.559 83.1967 206.979 82.868 207.047 82.8C207.545 82.8 207.795 82.97 207.795 83.31L207.693 83.854C206.514 84.398 205.097 85.3613 203.443 86.744ZM212.346 110.238C211.915 110.102 211.541 109.909 211.224 109.66C210.929 109.411 210.646 109.037 210.374 108.538C209.898 107.631 209.615 106.328 209.524 104.628C209.479 103.857 209.456 103.177 209.456 102.588V98.712C209.456 97.2387 209.501 95.8107 209.592 94.428C209.66 93.408 209.762 92.5467 209.898 91.844C210.034 91.1413 210.249 90.4387 210.544 89.736C210.861 89.0107 211.213 88.5007 211.598 88.206C211.757 88.07 212.063 87.9113 212.516 87.73C212.811 87.6167 213.094 87.492 213.366 87.356H214.726H214.828C214.851 87.3787 214.885 87.39 214.93 87.39L215.1 87.424L215.236 87.526C215.304 87.594 215.338 87.6393 215.338 87.662C215.361 87.7073 215.372 87.7753 215.372 87.866L214.93 88.376H213.502C213.071 88.376 212.675 88.5913 212.312 89.022C211.972 89.43 211.711 89.9513 211.53 90.586C211.349 91.1527 211.201 91.8213 211.088 92.592C210.975 93.3627 210.907 94.0313 210.884 94.598C210.839 95.3233 210.816 95.822 210.816 96.094L210.748 96.264C210.748 97.5333 210.725 98.678 210.68 99.698L210.612 103.132C210.612 104.129 210.68 105.047 210.816 105.886C210.929 106.793 211.258 107.609 211.802 108.334C212.323 109.059 213.128 109.422 214.216 109.422C214.556 109.422 214.839 109.32 215.066 109.116C215.406 109.116 215.576 109.241 215.576 109.49C215.576 109.649 215.429 109.83 215.134 110.034C214.862 110.261 214.579 110.431 214.284 110.544H213.162L212.346 110.238ZM223.061 110.646C220.409 110.646 219.083 106.475 219.083 98.134V96.944C219.083 90.62 219.899 87.458 221.531 87.458C221.644 87.458 221.803 87.492 222.007 87.56C222.732 87.8093 223.446 87.968 224.149 88.036C224.58 88.1267 225.01 88.5687 225.441 89.362C225.917 90.178 226.268 91.2547 226.495 92.592C226.744 93.9293 226.869 95.3007 226.869 96.706L226.801 96.876C226.801 97.624 226.812 98.2927 226.835 98.882L226.869 100.922C226.869 102.078 226.824 103.121 226.733 104.05C226.597 105.455 226.37 106.668 226.053 107.688C225.849 108.3 225.611 108.81 225.339 109.218C225.09 109.626 224.772 109.966 224.387 110.238C224.024 110.51 223.582 110.646 223.061 110.646ZM222.925 109.66C223.809 109.66 224.466 109.037 224.897 107.79C225.328 106.521 225.588 105.229 225.679 103.914C225.77 102.554 225.815 101.466 225.815 100.65C225.815 99.7433 225.747 98.406 225.611 96.638C225.498 94.666 225.441 93.3287 225.441 92.626L225.305 92.354L225.373 92.184C225.373 91.1867 225.09 90.3253 224.523 89.6C223.979 88.8747 223.31 88.512 222.517 88.512C221.474 88.512 220.851 89.0107 220.647 90.008C220.602 90.348 220.556 90.8353 220.511 91.47C220.511 93.1473 220.443 94.292 220.307 94.904C220.307 95.244 220.273 95.7767 220.205 96.502L220.137 98.1C220.137 98.5987 220.148 99.0407 220.171 99.426L220.205 100.786C220.205 101.851 220.296 103.075 220.477 104.458C220.613 105.478 220.772 106.339 220.953 107.042C221.134 107.745 221.395 108.345 221.735 108.844C222.075 109.388 222.472 109.66 222.925 109.66ZM231.891 110.442C231.574 110.442 231.381 110.181 231.313 109.66C231.358 109.524 231.381 109.15 231.381 108.538C231.381 106.453 231.415 103.359 231.483 99.256C231.551 95.176 231.585 92.2293 231.585 90.416L231.653 89.192L231.755 88.172C231.755 88.0133 231.834 87.934 231.993 87.934C232.106 87.934 232.265 87.968 232.469 88.036L232.571 88.07C232.571 88.5687 232.56 89.022 232.537 89.43V90.756V94.462C232.56 95.55 232.571 96.7853 232.571 98.168C232.548 98.2813 232.537 98.5307 232.537 98.916L232.503 99.63C232.48 100.083 232.469 100.548 232.469 101.024C232.469 101.545 232.48 102.021 232.503 102.452L232.537 103.914L232.435 104.186L232.469 104.152C232.469 104.22 232.458 104.265 232.435 104.288V104.424C232.435 104.605 232.469 104.764 232.537 104.9L232.435 108.164V108.368C232.435 108.753 232.446 108.98 232.469 109.048C232.469 109.161 232.526 109.218 232.639 109.218L234.407 109.286C234.928 109.286 235.28 109.297 235.461 109.32C235.665 109.32 235.79 109.32 235.835 109.32H235.937C236.05 109.32 236.164 109.388 236.277 109.524C236.39 109.637 236.447 109.762 236.447 109.898C236.447 110.17 236.266 110.317 235.903 110.34C235.518 110.317 234.577 110.306 233.081 110.306L233.149 110.34C232.922 110.34 232.707 110.351 232.503 110.374C232.322 110.419 232.118 110.442 231.891 110.442ZM243.282 110.646C240.63 110.646 239.304 106.475 239.304 98.134V96.944C239.304 90.62 240.12 87.458 241.752 87.458C241.865 87.458 242.024 87.492 242.228 87.56C242.953 87.8093 243.667 87.968 244.37 88.036C244.801 88.1267 245.231 88.5687 245.662 89.362C246.138 90.178 246.489 91.2547 246.716 92.592C246.965 93.9293 247.09 95.3007 247.09 96.706L247.022 96.876C247.022 97.624 247.033 98.2927 247.056 98.882L247.09 100.922C247.09 102.078 247.045 103.121 246.954 104.05C246.818 105.455 246.591 106.668 246.274 107.688C246.07 108.3 245.832 108.81 245.56 109.218C245.311 109.626 244.993 109.966 244.608 110.238C244.245 110.51 243.803 110.646 243.282 110.646ZM243.146 109.66C244.03 109.66 244.687 109.037 245.118 107.79C245.549 106.521 245.809 105.229 245.9 103.914C245.991 102.554 246.036 101.466 246.036 100.65C246.036 99.7433 245.968 98.406 245.832 96.638C245.719 94.666 245.662 93.3287 245.662 92.626L245.526 92.354L245.594 92.184C245.594 91.1867 245.311 90.3253 244.744 89.6C244.2 88.8747 243.531 88.512 242.738 88.512C241.695 88.512 241.072 89.0107 240.868 90.008C240.823 90.348 240.777 90.8353 240.732 91.47C240.732 93.1473 240.664 94.292 240.528 94.904C240.528 95.244 240.494 95.7767 240.426 96.502L240.358 98.1C240.358 98.5987 240.369 99.0407 240.392 99.426L240.426 100.786C240.426 101.851 240.517 103.075 240.698 104.458C240.834 105.478 240.993 106.339 241.174 107.042C241.355 107.745 241.616 108.345 241.956 108.844C242.296 109.388 242.693 109.66 243.146 109.66ZM255.512 110.238C254.469 110.238 253.698 110.113 253.2 109.864C252.701 109.615 252.327 109.139 252.078 108.436C251.851 107.711 251.647 106.566 251.466 105.002C251.194 102.713 251.058 100.933 251.058 99.664C251.058 98.8933 251.103 98.0093 251.194 97.012L251.398 94.87C251.511 93.17 251.636 91.8893 251.772 91.028C251.93 90.144 252.259 89.3733 252.758 88.716C253.279 88.036 254.072 87.6393 255.138 87.526C255.251 87.5033 255.432 87.492 255.682 87.492C256.384 87.492 256.736 87.6507 256.736 87.968C256.736 88.104 256.656 88.2287 256.498 88.342C256.362 88.4327 256.214 88.478 256.056 88.478L255.716 88.444L255.41 88.41C255.024 88.41 254.673 88.5347 254.356 88.784C254.061 89.0333 253.812 89.396 253.608 89.872C253.132 91.0053 252.826 92.116 252.69 93.204C252.508 94.632 252.395 95.8787 252.35 96.944L252.316 99.562C252.316 100.673 252.35 101.5 252.418 102.044C252.576 102.293 252.678 102.679 252.724 103.2C252.792 103.699 252.848 104.39 252.894 105.274C252.939 106.067 253.041 106.747 253.2 107.314C253.358 107.858 253.642 108.311 254.05 108.674C254.503 109.059 255.126 109.252 255.92 109.252C256.577 109.252 257.042 108.889 257.314 108.164C257.631 107.393 257.812 106.6 257.858 105.784C257.926 104.764 257.96 103.903 257.96 103.2V101.33C257.733 101.103 257.336 100.99 256.77 100.99H256.498C256.384 101.013 256.26 101.024 256.124 101.024C255.58 101.024 255.308 100.888 255.308 100.616C255.308 100.231 255.58 100.038 256.124 100.038C256.509 100.038 256.826 100.049 257.076 100.072L257.824 100.106C258.254 100.174 258.594 100.253 258.844 100.344C259.116 100.435 259.252 100.559 259.252 100.718C259.252 101.013 259.184 101.432 259.048 101.976C258.934 102.611 258.878 103.041 258.878 103.268C258.878 104.22 258.9 105.081 258.946 105.852C258.968 106.645 258.98 107.518 258.98 108.47C257.824 109.649 256.668 110.238 255.512 110.238ZM264.857 110C264.336 110 264.03 109.887 263.939 109.66C263.826 109.66 263.735 109.671 263.667 109.694H263.395C262.897 109.694 262.579 109.581 262.443 109.354C262.443 109.195 262.534 109.059 262.715 108.946L262.885 108.776H263.871L264.007 108.64L264.075 108.334L264.109 107.926C264.109 106.543 264.075 105.308 264.007 104.22L263.939 102.962L263.871 100.48C263.871 99.596 263.905 98.27 263.973 96.502L264.041 92.558C264.041 90.8353 263.985 89.5207 263.871 88.614C263.667 88.546 263.327 88.512 262.851 88.512L262.477 88.546C262.341 88.5687 262.194 88.58 262.035 88.58C261.605 88.58 261.389 88.3873 261.389 88.002C261.389 87.9113 261.491 87.8207 261.695 87.73C261.899 87.6393 262.069 87.594 262.205 87.594C263.067 87.594 263.928 87.6393 264.789 87.73C265.311 87.7527 265.832 87.8547 266.353 88.036C266.761 88.172 266.965 88.3647 266.965 88.614C266.965 88.6593 266.931 88.75 266.863 88.886L266.081 88.954C265.923 88.818 265.594 88.75 265.095 88.75L264.925 88.852C264.993 89.056 265.027 89.6567 265.027 90.654C265.027 92.15 265.016 93.4987 264.993 94.7L264.925 98.746C264.925 99.766 264.971 101.001 265.061 102.452C265.129 104.107 265.163 105.353 265.163 106.192V106.634C265.141 106.793 265.129 106.997 265.129 107.246C265.129 107.767 265.163 108.085 265.231 108.198L265.197 108.266C265.197 108.493 265.447 108.606 265.945 108.606C266.149 108.606 266.319 108.595 266.455 108.572H266.965C267.623 108.572 267.951 108.731 267.951 109.048C267.951 109.252 267.883 109.422 267.747 109.558C267.611 109.671 267.43 109.728 267.203 109.728C266.999 109.728 266.818 109.705 266.659 109.66C266.478 109.637 266.285 109.626 266.081 109.626C265.945 109.626 265.741 109.683 265.469 109.796C265.197 109.932 264.993 110 264.857 110ZM277.72 117.208C277.289 117.208 276.836 117.163 276.36 117.072C275.906 116.981 275.612 116.845 275.476 116.664C275.476 115.712 275.385 114.805 275.204 113.944C275.204 113.967 275.124 113.468 274.966 112.448L274.694 111.122C274.059 110.986 273.549 110.827 273.164 110.646C272.801 110.487 272.461 110.227 272.144 109.864C271.532 109.184 271.158 107.971 271.022 106.226C270.772 103.551 270.648 100.899 270.648 98.27V98.1C270.648 91.028 271.77 87.424 274.014 87.288C274.195 87.356 274.444 87.424 274.762 87.492L275.476 87.73C276.496 88.2513 277.221 89.0107 277.652 90.008C278.128 91.1187 278.422 92.1953 278.536 93.238C278.626 94.3487 278.672 95.414 278.672 96.434V98.032C278.672 99.6413 278.502 101.874 278.162 104.73C277.98 106.226 277.72 107.529 277.38 108.64C277.062 109.728 276.7 110.397 276.292 110.646C276.269 110.669 276.19 110.703 276.054 110.748C275.782 110.884 275.646 111.02 275.646 111.156C275.646 111.949 275.736 112.754 275.918 113.57C275.94 113.774 276.031 114.216 276.19 114.896C276.28 115.259 276.36 115.644 276.428 116.052C276.586 116.211 276.938 116.29 277.482 116.29C277.935 116.29 278.162 116.449 278.162 116.766C278.162 117.061 278.014 117.208 277.72 117.208ZM274.286 110.238C274.399 110.238 274.558 110.204 274.762 110.136C275.011 110.068 275.181 110.034 275.272 110.034C275.702 110.034 276.11 109.445 276.496 108.266C276.904 107.065 277.198 105.727 277.38 104.254C277.561 102.871 277.652 101.942 277.652 101.466V95.516C277.652 90.62 276.405 88.172 273.912 88.172C273.549 88.172 273.232 88.376 272.96 88.784C272.688 89.192 272.472 89.7473 272.314 90.45C271.951 91.9233 271.724 93.4307 271.634 94.972C271.543 96.4453 271.498 97.5673 271.498 98.338L271.566 98.678L271.634 98.984V100.446C271.634 106.974 272.518 110.238 274.286 110.238ZM286.347 110.51C285.984 110.51 285.588 110.385 285.157 110.136C284.749 109.909 284.409 109.637 284.137 109.32C283.82 108.912 283.57 107.767 283.389 105.886C283.208 104.005 283.094 101.851 283.049 99.426C283.049 98.882 283.038 98.474 283.015 98.202C282.97 92.5127 282.879 89.1467 282.743 88.104L282.947 87.628C283.468 87.696 283.729 88.3193 283.729 89.498L283.831 98.508C283.831 99.1427 283.888 100.344 284.001 102.112C284.137 103.699 284.205 104.9 284.205 105.716C284.205 108.3 285.055 109.592 286.755 109.592C287.798 109.592 288.466 107.212 288.761 102.452L288.795 101.772C288.954 95.5387 289.033 90.926 289.033 87.934L288.999 87.628C288.976 87.5373 288.965 87.4353 288.965 87.322C288.965 87.0727 289.158 86.948 289.543 86.948C289.815 86.948 289.985 87.016 290.053 87.152C290.098 87.3787 290.121 87.7753 290.121 88.342C290.121 90.0647 290.053 91.2207 289.917 91.81L289.951 92.014C289.951 92.3087 289.917 92.762 289.849 93.374L289.781 94.734V95.074C289.804 95.1647 289.815 95.278 289.815 95.414C289.77 95.958 289.747 96.4793 289.747 96.978C289.724 97.1367 289.713 97.386 289.713 97.726C289.668 99.8793 289.622 101.749 289.577 103.336C289.509 105.308 289.237 106.974 288.761 108.334C288.262 109.785 287.458 110.51 286.347 110.51ZM295.874 110.442C295.466 110.442 295.24 110.204 295.194 109.728V109.286C295.217 109.173 295.228 109.037 295.228 108.878L295.092 108.742C295.274 108.266 295.364 107.801 295.364 107.348C295.364 106.827 295.33 106.079 295.262 105.104L295.194 102.86C295.194 101.727 295.228 100.027 295.296 97.76C295.387 95.7427 295.432 94.0313 295.432 92.626L295.364 90.586C295.319 89.974 295.296 89.294 295.296 88.546C295.296 88.206 295.376 87.968 295.534 87.832C295.693 87.6733 295.942 87.594 296.282 87.594C296.509 87.594 296.69 87.662 296.826 87.798C296.872 87.8207 297.2 87.866 297.812 87.934C298.379 88.002 298.866 88.104 299.274 88.24C299.705 88.376 299.92 88.546 299.92 88.75C299.92 88.9767 299.705 89.2033 299.274 89.43C297.982 88.9993 297.064 88.784 296.52 88.784L296.35 88.988C296.373 89.192 296.384 89.6793 296.384 90.45C296.384 91.4247 296.362 92.2973 296.316 93.068C296.294 93.8613 296.282 94.7453 296.282 95.72C296.282 96.3547 296.441 96.672 296.758 96.672L297.302 96.638C297.484 96.6153 297.676 96.604 297.88 96.604C298.764 96.604 299.206 96.808 299.206 97.216C299.206 97.4653 299.15 97.6807 299.036 97.862C298.923 98.0207 298.753 98.1 298.526 98.1C298.186 98.1 297.926 98.0093 297.744 97.828L296.656 97.658H296.486L296.316 97.828V97.93C296.362 98.3153 296.384 99.2107 296.384 100.616C296.384 101.5 296.373 102.305 296.35 103.03L296.316 105.444C296.316 106.328 296.35 107.235 296.418 108.164C296.441 108.685 296.554 109.037 296.758 109.218C296.962 109.377 297.336 109.456 297.88 109.456L298.492 109.422C298.696 109.399 298.923 109.388 299.172 109.388C299.83 109.388 300.158 109.535 300.158 109.83C300.158 110.238 299.66 110.442 298.662 110.442H295.874ZM304.301 110.408C304.052 110.363 303.814 110.261 303.587 110.102C303.361 109.966 303.236 109.796 303.213 109.592L303.383 109.32C303.474 109.32 303.678 109.354 303.995 109.422C304.245 109.513 304.449 109.558 304.607 109.558C305.106 109.558 305.548 109.365 305.933 108.98C306.319 108.572 306.613 108.051 306.817 107.416C307.135 106.237 307.293 105.127 307.293 104.084C307.293 102.52 306.817 100.843 305.865 99.052C305.276 98.0093 304.823 97.182 304.505 96.57C304.188 95.958 303.905 95.2553 303.655 94.462C303.361 93.5327 303.213 92.6373 303.213 91.776C303.213 90.96 303.417 89.9967 303.825 88.886C304.029 88.3647 304.313 87.9453 304.675 87.628C305.061 87.288 305.469 87.118 305.899 87.118C306.194 87.118 306.477 87.22 306.749 87.424C307.044 87.628 307.191 87.8433 307.191 88.07C307.191 88.2513 307.044 88.342 306.749 88.342C306.659 88.342 306.545 88.308 306.409 88.24C306.273 88.172 306.149 88.138 306.035 88.138C305.695 88.138 305.389 88.274 305.117 88.546C304.845 88.818 304.641 89.1693 304.505 89.6C304.233 90.4387 304.097 91.2093 304.097 91.912C304.097 92.3427 304.154 92.7847 304.267 93.238C304.29 93.374 304.313 93.4873 304.335 93.578C304.358 93.6687 304.369 93.7367 304.369 93.782L304.573 94.462L304.743 95.074L305.015 95.686C305.083 95.8447 305.151 95.992 305.219 96.128C305.31 96.2413 305.389 96.3547 305.457 96.468L305.865 97.182C305.956 97.318 306.149 97.6467 306.443 98.168C306.738 98.6667 307.01 99.1993 307.259 99.766C307.486 100.242 307.656 100.695 307.769 101.126C307.883 101.534 307.985 102.033 308.075 102.622C308.143 103.189 308.177 103.812 308.177 104.492C308.177 105.58 308.03 106.6 307.735 107.552C307.327 108.685 306.738 109.479 305.967 109.932C305.537 110.204 305.038 110.34 304.471 110.34L304.301 110.408ZM307.021 88.24C307.021 88.2173 307.01 88.206 306.987 88.206V88.24H307.021Z" fill="white"/>
</svg>
