<svg width="200" height="33" viewBox="0 0 200 33" fill="none" xmlns="http://www.w3.org/2000/svg">
<path d="M1.86936 30.8445C1.21915 30.8445 0.758582 30.7768 0.48766 30.6413C0.24383 30.5329 0.121915 30.3027 0.121915 29.9505V29.1783C0.0948226 28.9616 0.0812764 28.7178 0.0812764 28.4468V28.3656L0.121915 22.4324L0.0812764 5.64873C0.0812764 3.91483 0.0541844 2.41121 0 1.13787C0 0.812766 0.0677306 0.541843 0.203192 0.325104C0.338653 0.108368 0.514752 0 0.73149 0H3.25107C3.63036 0 3.91483 0.0270919 4.10447 0.0812756C4.37539 0.162553 4.51086 0.392838 4.51086 0.772129C4.51086 0.988867 4.42958 1.16497 4.26703 1.30043C4.10447 1.43589 3.92837 1.51716 3.73873 1.54426H3.04788L2.39766 1.50362L1.74745 1.46298C1.5578 1.46298 1.42234 1.50362 1.34106 1.58489C1.28688 1.63908 1.25979 1.76099 1.25979 1.95064C1.25979 3.22397 1.27333 4.37539 1.30043 5.4049V8.85916V13.939C1.30043 13.9931 1.32752 14.0202 1.3817 14.0202H1.42234H1.46298C2.14029 13.966 2.87178 13.939 3.65745 13.939C4.09093 13.939 4.30766 14.1286 4.30766 14.5079C4.30766 14.7788 4.25348 14.9685 4.14511 15.0768C4.06383 15.1581 3.91483 15.1987 3.69809 15.1987H1.3817C1.27333 15.1987 1.21915 15.2665 1.21915 15.4019L1.30043 21.4164C1.35461 23.2858 1.3817 25.4396 1.3817 27.8779V29.3815H3.12915H4.83596H5.20171C5.68937 29.3815 5.9332 29.5576 5.9332 29.9098C5.9332 30.3433 5.81128 30.6007 5.56745 30.682C5.24235 30.7903 4.57859 30.8445 3.57617 30.8445H1.86936Z" fill="#3A3A3A"/>
<path d="M26.3346 32.7139C25.7928 32.7139 25.5218 31.8469 25.5218 30.113V27.4309C25.5218 23.5296 25.4406 20.4817 25.278 18.2873L25.1561 16.7836C25.0477 16.1063 24.9935 15.5103 24.9935 14.9955C24.9935 14.0744 25.0206 13.2346 25.0748 12.476L25.1561 9.95639C25.1561 9.11654 25.1019 8.47987 24.9935 8.04639C24.4517 8.42568 22.8126 14.1286 20.0763 25.1551L20.0357 25.7647C19.9544 26.442 19.846 26.9839 19.7105 27.3902C19.6293 27.6883 19.5074 27.9185 19.3448 28.0811C19.2093 28.2436 19.0468 28.3249 18.8571 28.3249C18.4237 28.3249 18.1121 28.2166 17.9225 27.9998C17.7328 27.7831 17.638 27.4444 17.638 26.9839C17.638 26.2524 17.2858 24.3559 16.5814 21.2945C15.9041 18.2331 15.1591 15.2936 14.3463 12.476C13.5606 9.65838 13.0188 8.10058 12.7208 7.80256C12.6937 8.75079 12.5853 10.9859 12.3956 14.5079C12.0164 20.7391 11.8267 25.6428 11.8267 29.219L11.8673 30.8445C11.759 31.1967 11.4745 31.3728 11.0139 31.3728C10.9327 31.3728 10.7972 31.2915 10.6076 31.129C10.4179 30.9935 10.3231 30.8851 10.3231 30.8039C10.3231 28.3656 10.5398 24.085 10.9733 17.9621C11.3797 12.2728 11.5829 8.00575 11.5829 5.16107C11.5829 5.02561 11.5558 4.89015 11.5016 4.75469C11.4203 4.59213 11.3797 4.47022 11.3797 4.38894C11.3797 3.98256 11.7319 3.77937 12.4363 3.77937C12.8969 3.77937 13.1678 3.98256 13.2491 4.38894C13.3574 4.93079 13.4116 5.33717 13.4116 5.60809L13.4522 6.09575C13.5877 6.80015 13.9805 7.88384 14.6308 9.34682C15.1455 10.5118 15.5383 11.5277 15.8093 12.3947C15.9718 13.0449 16.1208 13.5732 16.2563 13.9796C16.6898 15.5509 16.9742 16.7159 17.1097 17.4745L17.638 18.5311C17.7193 18.9375 17.8818 19.6012 18.1257 20.5224C18.3695 21.5519 18.5456 22.3917 18.654 23.0419C18.7623 23.6922 18.8165 24.3153 18.8165 24.9113C19.1145 24.4507 19.9544 21.6873 21.3361 16.6211C22.7449 11.5277 23.5712 8.27668 23.815 6.86788C23.8421 6.81369 23.8557 6.74596 23.8557 6.66469C23.8828 6.55632 23.9098 6.42086 23.9369 6.2583C23.9911 5.90611 24.113 5.37781 24.3027 4.67341C24.5194 4.13156 24.8445 3.86064 25.278 3.86064C25.4676 3.86064 25.6844 3.94192 25.9282 4.10447C26.172 4.26703 26.294 4.42958 26.294 4.59213C26.294 15.8896 26.4701 21.8634 26.8223 22.5136V24.6268C26.7952 25.25 26.7816 25.9679 26.7816 26.7807C26.7816 28.5146 26.8764 29.815 27.0661 30.682C27.0932 30.709 27.1067 30.7497 27.1067 30.8039C27.1338 30.858 27.1609 30.9258 27.188 31.0071C27.2151 31.1154 27.2286 31.2373 27.2286 31.3728C27.2286 31.6708 27.1338 31.9688 26.9442 32.2668C26.7816 32.5649 26.5784 32.7139 26.3346 32.7139ZM24.9935 7.80256H24.9529L24.8716 7.8432L24.9935 7.88384V7.80256Z" fill="#3A3A3A"/>
<path d="M33.9089 31.0883C33.6109 29.3815 33.4619 27.4309 33.4619 25.2364C33.4619 24.3695 33.5025 23.1097 33.5838 21.457L33.6651 17.6777C33.4754 17.2984 33.3806 16.9868 33.3806 16.743C33.6515 16.3095 33.787 15.0633 33.787 13.0043C33.787 8.07348 33.7192 5.44554 33.5838 5.12043C33.8276 4.44313 34.0173 4.10447 34.1527 4.10447H35.9408C36.2388 4.10447 36.6587 4.25348 37.2006 4.55149C37.7695 4.82242 38.2436 5.12043 38.6229 5.44554C39.3002 6.06866 39.6389 7.6671 39.6389 10.2409C39.6389 11.6226 39.5983 12.6792 39.517 13.4107C39.4628 13.9254 39.368 14.3318 39.2325 14.6298C39.1241 14.9278 38.948 15.2665 38.7042 15.6458C38.2978 16.2689 37.607 16.8107 36.6317 17.2713C36.2253 17.488 35.6563 17.7048 34.9248 17.9215V22.7575C34.9248 23.4348 34.9926 24.7623 35.128 26.74L35.2093 28.0405L35.2906 30.682C35.2906 31.1696 35.0332 31.4134 34.5185 31.4134L33.9089 31.0883ZM35.2093 16.5398C35.995 16.5398 36.6587 16.1741 37.2006 15.4426C37.3902 15.1716 37.5663 14.8059 37.7289 14.3453C37.8914 13.8848 37.9998 13.4377 38.054 13.0043C38.2165 12.2186 38.2978 11.311 38.2978 10.2815V9.18427C38.2978 8.80498 38.2843 8.43923 38.2572 8.08703C38.2301 7.73483 38.1759 7.39618 38.0946 7.07107C37.9863 6.71887 37.8373 6.4344 37.6476 6.21767C37.4851 5.97384 37.2548 5.77064 36.9568 5.60809C36.6317 5.44554 36.2388 5.36426 35.7782 5.36426C35.4531 5.36426 35.2229 5.44554 35.0874 5.60809C34.9519 5.77064 34.8842 6.05511 34.8842 6.4615C34.8842 7.11171 34.9248 8.08703 35.0061 9.38746L35.0874 12.3134C35.0874 13.0178 35.0603 13.6545 35.0061 14.2234L34.9248 16.1334L35.2093 16.5398Z" fill="#3A3A3A"/>
<path d="M50.2331 31.0883C49.908 30.7361 49.5558 29.8015 49.1765 28.2843C48.7972 26.7671 48.445 25.0603 48.1199 23.1639C47.9032 21.6196 47.5916 20.0889 47.1852 18.5717C46.8601 17.2171 46.5486 16.5398 46.2506 16.5398H46.1286C45.5326 16.5398 45.2346 16.7295 45.2346 17.1087C45.2346 19.0594 45.343 22.026 45.5597 26.0085C45.6681 28.4468 45.79 29.8692 45.9255 30.2756L45.6003 30.9664H45.0314L44.7063 30.6413C44.2728 18.1247 44.0561 9.59065 44.0561 5.03916C44.0561 4.74114 44.0696 4.49731 44.0967 4.30766C44.1509 4.11802 44.2457 3.94192 44.3812 3.77937C44.4896 3.58972 44.6792 3.4949 44.9501 3.4949C46.3318 3.4949 47.4426 3.83355 48.2825 4.51086C49.1223 5.18816 49.5423 6.16348 49.5423 7.43681V10.4034C49.5423 10.9182 49.3662 11.609 49.014 12.476C48.6889 13.3429 48.3231 14.1421 47.9167 14.8736L47.3884 15.8896C47.6864 17.2713 48.2689 19.7638 49.1359 23.367C50.0299 26.9432 50.5176 28.8397 50.5989 29.0564C50.626 29.0835 50.653 29.1512 50.6801 29.2596C50.7343 29.368 50.8291 29.5305 50.9646 29.7473C51.1543 30.1266 51.2491 30.4517 51.2491 30.7226C51.2491 31.1019 51.1001 31.2915 50.8021 31.2915L50.2331 31.0883ZM45.4378 15.5238C45.9525 15.5238 46.4131 15.2665 46.8195 14.7517C47.2259 14.237 47.551 13.5732 47.7948 12.7604C48.2283 11.1078 48.445 9.79384 48.445 8.81852C48.445 8.1954 48.4044 7.68065 48.3231 7.27426C48.2689 6.86788 48.1606 6.4344 47.998 5.97384C47.6729 5.02561 46.9008 4.55149 45.6816 4.55149C45.5462 4.55149 45.4378 4.67341 45.3565 4.91724C45.2752 5.13398 45.2346 5.36426 45.2346 5.60809C45.2346 7.42327 45.2617 9.06235 45.3159 10.5253C45.343 11.9883 45.3565 13.6274 45.3565 15.4426L45.4378 15.5238Z" fill="#3A3A3A"/>
<path d="M56.5743 31.129C56.0866 31.129 55.8157 30.8445 55.7615 30.2756V29.7473C55.7886 29.6118 55.8022 29.4493 55.8022 29.2596L55.6396 29.0971C55.8563 28.5281 55.9647 27.9727 55.9647 27.4309C55.9647 26.8078 55.9241 25.9137 55.8428 24.7487L55.7615 22.0666C55.7615 20.712 55.8022 18.6801 55.8834 15.9709C55.9918 13.5597 56.046 11.5142 56.046 9.83448L55.9647 7.39618C55.9105 6.66469 55.8834 5.85192 55.8834 4.95788C55.8834 4.55149 55.9783 4.26703 56.1679 4.10447C56.3575 3.91483 56.6556 3.82 57.0619 3.82C57.3329 3.82 57.5496 3.90128 57.7122 4.06383C57.7663 4.09093 58.1592 4.14511 58.8907 4.22639C59.568 4.30766 60.1505 4.42958 60.6381 4.59213C61.1529 4.75469 61.4102 4.95788 61.4102 5.20171C61.4102 5.47263 61.1529 5.74355 60.6381 6.01447C59.0939 5.49972 57.9966 5.24235 57.3464 5.24235L57.1432 5.48618C57.1703 5.73001 57.1839 6.31249 57.1839 7.23362C57.1839 8.39859 57.1568 9.44164 57.1026 10.3628C57.0755 11.311 57.0619 12.3676 57.0619 13.5326C57.0619 14.2911 57.2516 14.6704 57.6309 14.6704L58.2811 14.6298C58.4978 14.6027 58.7281 14.5892 58.9719 14.5892C60.0285 14.5892 60.5568 14.833 60.5568 15.3207C60.5568 15.6187 60.4891 15.876 60.3537 16.0928C60.2182 16.2824 60.015 16.3773 59.7441 16.3773C59.3377 16.3773 59.0261 16.2689 58.8094 16.0521L57.509 15.849H57.3058L57.1026 16.0521V16.1741C57.1568 16.6346 57.1839 17.7048 57.1839 19.3845C57.1839 20.4411 57.1703 21.4029 57.1432 22.2698L57.1026 25.1551C57.1026 26.2117 57.1432 27.2954 57.2245 28.4062C57.2516 29.0293 57.3871 29.4493 57.6309 29.666C57.8747 29.8556 58.3217 29.9505 58.9719 29.9505L59.7034 29.9098C59.9473 29.8827 60.2182 29.8692 60.5162 29.8692C61.3019 29.8692 61.6947 30.0453 61.6947 30.3975C61.6947 30.8851 61.0987 31.129 59.9066 31.129H56.5743Z" fill="#3A3A3A"/>
<path d="M68.3943 30.6007C67.7712 30.6007 67.4055 30.4652 67.2971 30.1943C67.1616 30.1943 67.0533 30.2078 66.972 30.2349H66.6469C66.0509 30.2349 65.6716 30.0995 65.509 29.8285C65.509 29.6389 65.6174 29.4763 65.8341 29.3409L66.0373 29.1377H67.2158L67.3784 28.9751L67.4596 28.6094L67.5003 28.1217C67.5003 26.4691 67.4596 24.9926 67.3784 23.6922L67.2971 22.1885L67.2158 19.2219C67.2158 18.1653 67.2565 16.5804 67.3377 14.4672L67.419 9.7532C67.419 7.69419 67.3513 6.12284 67.2158 5.03916C66.972 4.95788 66.5656 4.91724 65.9967 4.91724L65.5496 4.95788C65.3871 4.98497 65.211 4.99851 65.0213 4.99851C64.5066 4.99851 64.2492 4.76823 64.2492 4.30766C64.2492 4.19929 64.3711 4.09093 64.615 3.98256C64.8588 3.87419 65.062 3.82 65.2245 3.82C66.254 3.82 67.2835 3.87419 68.3131 3.98256C68.9362 4.00965 69.5593 4.13156 70.1824 4.3483C70.6701 4.51086 70.9139 4.74114 70.9139 5.03916C70.9139 5.09334 70.8733 5.20171 70.792 5.36426L69.8573 5.44554C69.6677 5.28299 69.2748 5.20171 68.6788 5.20171L68.4756 5.32362C68.5569 5.56745 68.5975 6.2854 68.5975 7.47746C68.5975 9.26554 68.584 10.8775 68.5569 12.3134L68.4756 17.1494C68.4756 18.3685 68.5298 19.8451 68.6382 21.579C68.7194 23.5567 68.7601 25.0468 68.7601 26.0492V26.5775C68.733 26.7671 68.7194 27.011 68.7194 27.309C68.7194 27.9321 68.7601 28.3114 68.8414 28.4468L68.8007 28.5281C68.8007 28.799 69.0987 28.9345 69.6948 28.9345C69.9386 28.9345 70.1418 28.921 70.3043 28.8939H70.9139C71.6996 28.8939 72.0924 29.0835 72.0924 29.4628C72.0924 29.7066 72.0111 29.9098 71.8486 30.0724C71.686 30.2078 71.4693 30.2756 71.1984 30.2756C70.9545 30.2756 70.7378 30.2485 70.5482 30.1943C70.3314 30.1672 70.1011 30.1537 69.8573 30.1537C69.6948 30.1537 69.4509 30.2214 69.1258 30.3568C68.8007 30.5194 68.5569 30.6007 68.3943 30.6007Z" fill="#3A3A3A"/>
<path d="M86.2063 30.7632C85.9896 30.7632 85.827 30.6819 85.7186 30.5194C85.6374 30.3568 85.5561 30.113 85.4748 29.7879C85.4477 29.5712 85.3935 29.3815 85.3123 29.219L85.3529 29.0971C85.1362 27.8237 84.6756 26.2659 83.9712 24.4236L83.2397 22.3105C83.1855 22.2563 82.9281 21.5654 82.4676 20.2379L82.1425 19.2626C79.7042 11.7309 78.1735 7.65355 77.5503 7.03043C77.3336 7.76192 77.2252 8.71015 77.2252 9.87512C77.2252 10.4982 77.2388 11.0401 77.2659 11.5007L77.3065 13.0855L77.2659 14.0609C77.2388 14.3589 77.2252 14.684 77.2252 15.0362C77.2252 15.6322 77.2523 16.147 77.3065 16.5804C77.3607 17.4474 77.3878 17.8809 77.3878 17.8809H77.2659C77.2659 22.4053 77.3607 24.8978 77.5503 25.3583V29.0158C77.6587 29.2325 77.7129 29.517 77.7129 29.8692C77.7129 30.0859 77.6316 30.2756 77.4691 30.4381C77.3336 30.6007 77.1575 30.682 76.9408 30.682C76.3718 30.682 76.0874 29.9505 76.0874 28.4875L76.1686 27.1871C76.2228 26.7807 76.2499 26.3336 76.2499 25.846C76.2499 24.5456 76.2093 22.5949 76.128 19.9941C76.0467 17.3932 76.0061 15.4426 76.0061 14.1421C76.0061 13.3565 76.0467 12.1509 76.128 10.5253C76.2093 8.92689 76.2499 7.73483 76.2499 6.94916V6.42086C76.2499 5.09334 76.4937 4.22639 76.9814 3.82L77.1033 3.94192L77.5097 3.86064C77.6181 3.88774 77.74 3.96901 77.8754 4.10447C77.9838 4.21284 78.038 4.33476 78.038 4.47022L78.1193 4.71405C78.1193 4.76823 78.1193 4.82242 78.1193 4.8766C78.1464 4.90369 78.1599 4.91724 78.1599 4.91724C78.5934 6.84079 79.5687 9.53646 81.0859 13.0043C82.6301 16.6617 83.5919 19.0865 83.9712 20.2785C84.2421 21.2268 84.4589 22.0666 84.6214 22.7981C85.1362 25.1009 85.7457 26.8755 86.4501 28.1217L86.5314 27.9998C87.1545 21.9853 87.4661 14.6027 87.4661 5.85192L87.4255 5.36426C87.3984 5.2288 87.3848 5.0527 87.3848 4.83596C87.3848 4.26703 87.5745 3.98256 87.9538 3.98256C88.1976 3.98256 88.4008 4.10447 88.5633 4.3483C88.753 4.59213 88.8478 4.86305 88.8478 5.16107V7.88384L88.6446 8.20894C88.6446 10.7827 88.4956 15.0091 88.1976 20.8881C87.8996 26.7671 87.6151 29.964 87.3442 30.4788L86.6533 30.6413V30.682L86.6127 30.6413L86.2063 30.7632Z" fill="#3A3A3A"/>
<path d="M97.2177 30.0317L97.1771 28.5281C97.15 28.0946 97.1364 27.607 97.1364 27.0651C97.1364 26.7942 97.15 26.5639 97.1771 26.3743L97.2177 25.6428C97.2177 25.3719 97.1635 25.0468 97.0552 24.6675C97.0552 22.8523 96.9197 19.4793 96.6488 14.5485C96.3778 9.78029 96.2288 6.54277 96.2017 4.83596C94.522 4.83596 93.3977 4.79532 92.8288 4.71405C92.2869 4.57859 92.016 4.36185 92.016 4.06383C92.1515 3.76582 92.4088 3.61681 92.7881 3.61681C93.6009 3.61681 94.7794 3.671 96.3237 3.77937C97.7325 3.91483 98.911 3.98256 99.8592 3.98256H100.713L101.566 3.94192C102.054 3.94192 102.298 4.11802 102.298 4.47022C102.298 4.63277 102.203 4.76823 102.013 4.8766C101.85 4.95788 101.647 4.99851 101.403 4.99851C100.862 4.99851 100.293 4.97142 99.6966 4.91724L97.9492 4.83596C97.8408 4.83596 97.7866 4.8766 97.7866 4.95788C97.7596 5.03915 97.746 5.29653 97.746 5.73001C97.746 8.35795 97.9086 12.3405 98.2337 17.6777C98.5317 23.2045 98.6807 27.1735 98.6807 29.5847C98.6807 29.7744 98.5588 29.9505 98.3149 30.113C98.0982 30.2756 97.8815 30.3568 97.6647 30.3568L97.2177 30.0317Z" fill="#3A3A3A"/>
<path d="M107.372 31.129C106.885 31.129 106.614 30.8445 106.559 30.2756V29.7473C106.587 29.6118 106.6 29.4493 106.6 29.2596L106.438 29.0971C106.654 28.5281 106.763 27.9727 106.763 27.4309C106.763 26.8078 106.722 25.9137 106.641 24.7487L106.559 22.0666C106.559 20.712 106.6 18.6801 106.681 15.9709C106.79 13.5597 106.844 11.5142 106.844 9.83448L106.763 7.39618C106.708 6.66469 106.681 5.85192 106.681 4.95788C106.681 4.55149 106.776 4.26703 106.966 4.10447C107.155 3.91483 107.453 3.82 107.86 3.82C108.131 3.82 108.348 3.90128 108.51 4.06383C108.564 4.09093 108.957 4.14511 109.689 4.22639C110.366 4.30766 110.948 4.42958 111.436 4.59213C111.951 4.75469 112.208 4.95788 112.208 5.20171C112.208 5.47263 111.951 5.74355 111.436 6.01447C109.892 5.49972 108.795 5.24235 108.144 5.24235L107.941 5.48618C107.968 5.73001 107.982 6.31249 107.982 7.23362C107.982 8.39859 107.955 9.44164 107.901 10.3628C107.873 11.311 107.86 12.3676 107.86 13.5326C107.86 14.2911 108.05 14.6704 108.429 14.6704L109.079 14.6298C109.296 14.6027 109.526 14.5892 109.77 14.5892C110.826 14.5892 111.355 14.833 111.355 15.3207C111.355 15.6187 111.287 15.876 111.152 16.0928C111.016 16.2824 110.813 16.3773 110.542 16.3773C110.136 16.3773 109.824 16.2689 109.607 16.0521L108.307 15.849H108.104L107.901 16.0521V16.1741C107.955 16.6346 107.982 17.7048 107.982 19.3845C107.982 20.4411 107.968 21.4029 107.941 22.2698L107.901 25.1551C107.901 26.2117 107.941 27.2954 108.022 28.4062C108.05 29.0293 108.185 29.4493 108.429 29.666C108.673 29.8556 109.12 29.9505 109.77 29.9505L110.501 29.9098C110.745 29.8827 111.016 29.8692 111.314 29.8692C112.1 29.8692 112.493 30.0453 112.493 30.3975C112.493 30.8851 111.897 31.129 110.705 31.129H107.372Z" fill="#3A3A3A"/>
<path d="M134.306 30.7632C134.089 30.7632 133.926 30.6819 133.818 30.5194C133.737 30.3568 133.655 30.113 133.574 29.7879C133.547 29.5712 133.493 29.3815 133.412 29.219L133.452 29.0971C133.235 27.8237 132.775 26.2659 132.07 24.4236L131.339 22.3105C131.285 22.2563 131.027 21.5654 130.567 20.2379L130.242 19.2626C127.803 11.7309 126.273 7.65355 125.65 7.03043C125.433 7.76192 125.325 8.71015 125.325 9.87512C125.325 10.4982 125.338 11.0401 125.365 11.5007L125.406 13.0855L125.365 14.0609C125.338 14.3589 125.325 14.684 125.325 15.0362C125.325 15.6322 125.352 16.147 125.406 16.5804C125.46 17.4474 125.487 17.8809 125.487 17.8809H125.365C125.365 22.4053 125.46 24.8978 125.65 25.3583V29.0158C125.758 29.2325 125.812 29.517 125.812 29.8692C125.812 30.0859 125.731 30.2756 125.568 30.4381C125.433 30.6007 125.257 30.682 125.04 30.682C124.471 30.682 124.187 29.9505 124.187 28.4875L124.268 27.1871C124.322 26.7807 124.349 26.3336 124.349 25.846C124.349 24.5456 124.309 22.5949 124.227 19.9941C124.146 17.3932 124.105 15.4426 124.105 14.1421C124.105 13.3565 124.146 12.1509 124.227 10.5253C124.309 8.92689 124.349 7.73483 124.349 6.94916V6.42086C124.349 5.09334 124.593 4.22639 125.081 3.82L125.203 3.94192L125.609 3.86064C125.717 3.88774 125.839 3.96901 125.975 4.10447C126.083 4.21284 126.137 4.33476 126.137 4.47022L126.219 4.71405C126.219 4.76823 126.219 4.82242 126.219 4.8766C126.246 4.90369 126.259 4.91724 126.259 4.91724C126.693 6.84079 127.668 9.53646 129.185 13.0043C130.729 16.6617 131.691 19.0865 132.07 20.2785C132.341 21.2268 132.558 22.0666 132.721 22.7981C133.235 25.1009 133.845 26.8755 134.549 28.1217L134.631 27.9998C135.254 21.9853 135.565 14.6027 135.565 5.85192L135.525 5.36426C135.498 5.2288 135.484 5.0527 135.484 4.83596C135.484 4.26703 135.674 3.98256 136.053 3.98256C136.297 3.98256 136.5 4.10447 136.663 4.3483C136.852 4.59213 136.947 4.86305 136.947 5.16107V7.88384L136.744 8.20894C136.744 10.7827 136.595 15.0091 136.297 20.8881C135.999 26.7671 135.714 29.964 135.443 30.4788L134.753 30.6413V30.682L134.712 30.6413L134.306 30.7632Z" fill="#3A3A3A"/>
<path d="M150.641 30.9664C150.234 30.9664 149.977 30.9122 149.868 30.8039C149.76 30.7226 149.679 30.4788 149.625 30.0724C149.381 28.0946 149.232 26.8619 149.178 26.3743L148.974 24.7487C148.378 24.6133 147.701 24.5456 146.943 24.5456L145.48 24.4643C144.829 24.383 144.355 24.3424 144.057 24.3424C143.895 24.3424 143.8 24.4101 143.773 24.5456C143.773 24.6268 143.759 24.6675 143.732 24.6675L143.651 25.4802C143.624 25.9679 143.475 26.9432 143.204 28.4062C143.068 29.1377 142.906 29.7066 142.716 30.113C142.499 30.5736 142.296 30.8039 142.107 30.8039C141.944 30.8039 141.768 30.7361 141.578 30.6007C141.389 30.4381 141.294 30.2756 141.294 30.113L141.334 29.9911L141.375 29.8692C141.863 27.9456 142.269 26.0356 142.594 24.1392L143.082 21.6196L143.57 18.5311C143.57 18.5311 143.719 17.637 144.017 15.849C144.152 15.1175 144.396 13.939 144.748 12.3134C145.127 10.4711 145.358 9.21136 145.439 8.53405C145.466 8.45278 145.52 7.95157 145.601 7.03043C145.71 6.00093 145.805 5.24235 145.886 4.75469C145.967 4.05029 146.048 3.6439 146.13 3.53554H146.414C146.496 3.56263 146.59 3.57617 146.699 3.57617C147.024 3.57617 147.268 3.4949 147.43 3.33234C147.62 3.33234 147.782 3.40008 147.918 3.53554C148.08 3.6439 148.162 3.77936 148.162 3.94192C148.162 5.24235 148.257 6.73242 148.446 8.41214C148.555 9.27909 148.636 9.99703 148.69 10.566C148.988 14.0609 149.747 20.6172 150.966 30.2349V30.3568C150.966 30.6278 150.857 30.831 150.641 30.9664ZM148.771 23.6515C148.5 19.7502 147.986 13.9931 147.227 6.38022L145.033 17.2307C144.409 20.3463 144.098 22.3104 144.098 23.1232C144.098 23.2587 144.613 23.3806 145.642 23.489C146.672 23.5973 147.579 23.6515 148.365 23.6515H148.771Z" fill="#3A3A3A"/>
<path d="M158.056 30.0317L158.016 28.5281C157.988 28.0946 157.975 27.607 157.975 27.0651C157.975 26.7942 157.988 26.5639 158.016 26.3743L158.056 25.6428C158.056 25.3719 158.002 25.0468 157.894 24.6675C157.894 22.8523 157.758 19.4793 157.487 14.5485C157.216 9.78029 157.067 6.54277 157.04 4.83596C155.36 4.83596 154.236 4.79532 153.667 4.71405C153.125 4.57859 152.854 4.36185 152.854 4.06383C152.99 3.76582 153.247 3.61681 153.627 3.61681C154.439 3.61681 155.618 3.671 157.162 3.77937C158.571 3.91483 159.749 3.98256 160.698 3.98256H161.551L162.404 3.94192C162.892 3.94192 163.136 4.11802 163.136 4.47022C163.136 4.63277 163.041 4.76823 162.851 4.8766C162.689 4.95788 162.486 4.99851 162.242 4.99851C161.7 4.99851 161.131 4.97142 160.535 4.91724L158.788 4.83596C158.679 4.83596 158.625 4.8766 158.625 4.95788C158.598 5.03915 158.584 5.29653 158.584 5.73001C158.584 8.35795 158.747 12.3405 159.072 17.6777C159.37 23.2045 159.519 27.1735 159.519 29.5847C159.519 29.7744 159.397 29.9505 159.153 30.113C158.937 30.2756 158.72 30.3568 158.503 30.3568L158.056 30.0317Z" fill="#3A3A3A"/>
<path d="M171.706 31.2102C171.272 31.2102 170.798 31.0612 170.283 30.7632C169.796 30.4923 169.389 30.1672 169.064 29.7879C168.685 29.3002 168.387 27.9321 168.17 25.6834C167.953 23.4348 167.818 20.861 167.764 17.9621C167.764 17.3119 167.75 16.8243 167.723 16.4992C167.669 9.69902 167.56 5.67582 167.398 4.42958L167.642 3.86064C168.265 3.94192 168.576 4.68695 168.576 6.09575L168.698 16.8649C168.698 17.6235 168.766 19.0594 168.902 21.1726C169.064 23.069 169.145 24.5049 169.145 25.4802C169.145 28.5688 170.161 30.113 172.193 30.113C173.439 30.113 174.239 27.2683 174.591 21.579L174.632 20.7662C174.821 13.3158 174.916 7.80256 174.916 4.22639L174.875 3.86064C174.848 3.75227 174.835 3.63036 174.835 3.4949C174.835 3.19688 175.065 3.04788 175.526 3.04788C175.851 3.04788 176.054 3.12915 176.135 3.2917C176.189 3.56263 176.216 4.03674 176.216 4.71405C176.216 6.77306 176.135 8.15476 175.973 8.85916L176.013 9.10299C176.013 9.45519 175.973 9.99703 175.891 10.7285L175.81 12.3541V12.7604C175.837 12.8688 175.851 13.0043 175.851 13.1668C175.796 13.817 175.769 14.4402 175.769 15.0362C175.742 15.2258 175.729 15.5238 175.729 15.9302C175.675 18.504 175.62 20.7391 175.566 22.6356C175.485 24.9926 175.16 26.9839 174.591 28.6094C173.995 30.3433 173.033 31.2102 171.706 31.2102Z" fill="#3A3A3A"/>
<path d="M188.538 31.0883C188.213 30.7361 187.861 29.8015 187.482 28.2843C187.103 26.7671 186.75 25.0603 186.425 23.1639C186.208 21.6196 185.897 20.0889 185.491 18.5717C185.165 17.2171 184.854 16.5398 184.556 16.5398H184.434C183.838 16.5398 183.54 16.7295 183.54 17.1087C183.54 19.0594 183.648 22.026 183.865 26.0085C183.973 28.4468 184.095 29.8692 184.231 30.2756L183.906 30.9664H183.337L183.012 30.6413C182.578 18.1247 182.361 9.59065 182.361 5.03916C182.361 4.74114 182.375 4.49731 182.402 4.30766C182.456 4.11802 182.551 3.94192 182.686 3.77937C182.795 3.58972 182.985 3.4949 183.255 3.4949C184.637 3.4949 185.748 3.83355 186.588 4.51086C187.428 5.18816 187.848 6.16348 187.848 7.43681V10.4034C187.848 10.9182 187.671 11.609 187.319 12.476C186.994 13.3429 186.628 14.1421 186.222 14.8736L185.694 15.8896C185.992 17.2713 186.574 19.7638 187.441 23.367C188.335 26.9432 188.823 28.8397 188.904 29.0564C188.931 29.0835 188.958 29.1512 188.985 29.2596C189.04 29.368 189.134 29.5305 189.27 29.7473C189.46 30.1266 189.554 30.4517 189.554 30.7226C189.554 31.1019 189.405 31.2915 189.107 31.2915L188.538 31.0883ZM183.743 15.5238C184.258 15.5238 184.718 15.2665 185.125 14.7517C185.531 14.237 185.856 13.5732 186.1 12.7604C186.534 11.1078 186.75 9.79384 186.75 8.81852C186.75 8.1954 186.71 7.68065 186.628 7.27426C186.574 6.86788 186.466 6.4344 186.303 5.97384C185.978 5.02561 185.206 4.55149 183.987 4.55149C183.851 4.55149 183.743 4.67341 183.662 4.91724C183.581 5.13398 183.54 5.36426 183.54 5.60809C183.54 7.42327 183.567 9.06235 183.621 10.5253C183.648 11.9883 183.662 13.6274 183.662 15.4426L183.743 15.5238Z" fill="#3A3A3A"/>
<path d="M194.88 31.129C194.392 31.129 194.121 30.8445 194.067 30.2756V29.7473C194.094 29.6118 194.107 29.4493 194.107 29.2596L193.945 29.0971C194.162 28.5281 194.27 27.9727 194.27 27.4309C194.27 26.8078 194.229 25.9137 194.148 24.7487L194.067 22.0666C194.067 20.712 194.107 18.6801 194.189 15.9709C194.297 13.5597 194.351 11.5142 194.351 9.83448L194.27 7.39618C194.216 6.66469 194.189 5.85192 194.189 4.95788C194.189 4.55149 194.284 4.26703 194.473 4.10447C194.663 3.91483 194.961 3.82 195.367 3.82C195.638 3.82 195.855 3.90128 196.017 4.06383C196.072 4.09093 196.464 4.14511 197.196 4.22639C197.873 4.30766 198.456 4.42958 198.943 4.59213C199.458 4.75469 199.716 4.95788 199.716 5.20171C199.716 5.47263 199.458 5.74355 198.943 6.01447C197.399 5.49972 196.302 5.24235 195.652 5.24235L195.449 5.48618C195.476 5.73001 195.489 6.31249 195.489 7.23362C195.489 8.39859 195.462 9.44164 195.408 10.3628C195.381 11.311 195.367 12.3676 195.367 13.5326C195.367 14.2911 195.557 14.6704 195.936 14.6704L196.586 14.6298C196.803 14.6027 197.033 14.5892 197.277 14.5892C198.334 14.5892 198.862 14.833 198.862 15.3207C198.862 15.6187 198.794 15.876 198.659 16.0928C198.523 16.2824 198.32 16.3773 198.049 16.3773C197.643 16.3773 197.331 16.2689 197.115 16.0521L195.814 15.849H195.611L195.408 16.0521V16.1741C195.462 16.6346 195.489 17.7048 195.489 19.3845C195.489 20.4411 195.476 21.4029 195.449 22.2698L195.408 25.1551C195.408 26.2117 195.449 27.2954 195.53 28.4062C195.557 29.0293 195.692 29.4493 195.936 29.666C196.18 29.8556 196.627 29.9505 197.277 29.9505L198.009 29.9098C198.253 29.8827 198.523 29.8692 198.822 29.8692C199.607 29.8692 200 30.0453 200 30.3975C200 30.8851 199.404 31.129 198.212 31.129H194.88Z" fill="#3A3A3A"/>
</svg>
